<?xml version="1.0" encoding="UTF-8"?>
<svg version="1.1" xmlns="http://www.w3.org/2000/svg" width="543" height="460">
<path d="M0 0 C0.96817657 0.00050323 1.93635315 0.00100645 2.93386841 0.00152493 C4.04131912 -0.00010654 5.14876984 -0.00173801 6.28977966 -0.00341892 C7.51569321 0.00010082 8.74160675 0.00362057 10.00466919 0.00724697 C11.28758347 0.00721676 12.57049774 0.00718655 13.89228821 0.00715542 C18.16154972 0.00815053 22.43074531 0.02043901 26.69998169 0.03434658 C27.42646282 0.03655988 28.15294395 0.03877317 28.90143967 0.04105353 C35.75563498 0.06219312 42.60980386 0.0873556 49.46394348 0.12233734 C58.22624823 0.16681974 66.98809789 0.19149381 75.7505188 0.18858916 C81.91299031 0.1881962 88.07512746 0.21070471 94.23747253 0.24995607 C97.91613319 0.2727798 101.59419209 0.28569955 105.2729187 0.27404881 C109.38593871 0.26161138 113.49728194 0.29656888 117.61013794 0.33537197 C118.81985764 0.3247221 120.02957733 0.31407223 121.2759552 0.30309963 C129.95836944 0.44222687 135.0512962 2.68318803 141.37052917 8.56202698 C147.14743529 14.80697193 148.27457654 21.98772732 148.18574524 30.09660244 C148.18830851 30.96506739 148.19087179 31.83353233 148.19351274 32.7283144 C148.1984287 35.61958041 148.18199398 38.5103167 148.16555786 41.40153408 C148.16471112 43.48150527 148.16518766 45.56147735 148.16688538 47.64144802 C148.1677449 53.27517108 148.15012594 58.90870189 148.1291635 64.54238033 C148.11038963 70.43471199 148.1086457 76.32704822 148.10508728 82.21940517 C148.09576893 93.37166928 148.0711579 104.523845 148.04103881 115.67607021 C148.00748835 128.37491341 147.99100715 141.07376087 147.97595251 153.77263737 C147.94460822 179.88987066 147.89185172 206.00702554 147.82498169 232.12419033 C130.50907473 232.26455312 113.19334613 232.37025521 95.87699986 232.43506336 C87.83611051 232.46595915 79.79557531 232.50805698 71.75491333 232.57682705 C64.74400444 232.63676111 57.73335211 232.67537057 50.72219414 232.6887213 C47.01207481 232.69652168 43.30268924 232.71476253 39.59280586 232.75857067 C35.44404123 232.80716081 31.29653995 232.80812128 27.14749146 232.80534267 C25.92684998 232.82691433 24.7062085 232.84848598 23.44857788 232.87071133 C14.51193496 232.80604659 9.3256227 230.49024965 2.94928837 224.30458546 C-2.93308526 218.21096084 -3.47438762 211.38610826 -3.42225647 203.27876186 C-3.42467089 202.41185691 -3.4270853 201.54495195 -3.42957288 200.65177715 C-3.43518875 197.75985412 -3.4265629 194.86815406 -3.41793823 191.97624111 C-3.41901159 189.89803921 -3.42095108 187.8198376 -3.4236908 185.74163723 C-3.42853183 180.1078371 -3.42089399 174.47411636 -3.41073775 168.84032583 C-3.40195105 162.9484472 -3.40371478 157.05657101 -3.40409851 151.16468716 C-3.40316254 141.27715126 -3.39448518 131.3896461 -3.38082886 121.50212002 C-3.365078 110.05546775 -3.35983168 98.60884907 -3.36056441 87.16218674 C-3.36117364 76.16042019 -3.35607951 65.15866462 -3.3477726 54.15690136 C-3.34423373 49.46870113 -3.3424085 44.78050478 -3.34187889 40.09230328 C-3.3408781 34.58150588 -3.33480323 29.07073694 -3.32471275 23.55994892 C-3.32178002 21.53176771 -3.32056394 19.50358322 -3.32114029 17.47539997 C-3.3216273 14.71947489 -3.31601195 11.9636308 -3.30873108 9.20771694 C-3.31027968 8.39441453 -3.31182828 7.58111212 -3.31342381 6.74316418 C-3.28457286 0.18754426 -3.28457286 0.18754426 0 0 Z " fill="#4F5CD2" transform="translate(198.17501831054688,75.87580966949463)"/>
<path d="M0 0 C0.33 0 0.66 0 1 0 C1 44.55 1 89.1 1 135 C-20.759375 135.12375 -42.51875 135.2475 -64.9375 135.375 C-71.79909912 135.42962402 -78.66069824 135.48424805 -85.73022461 135.54052734 C-94.13195801 135.56762695 -94.13195801 135.56762695 -98.06959534 135.57266235 C-100.8107021 135.58185662 -103.55013024 135.60064712 -106.29090881 135.63345337 C-110.45068078 135.68257933 -114.60922575 135.68343261 -118.76928711 135.68115234 C-119.98289634 135.70274099 -121.19650557 135.72432964 -122.44689083 135.74657249 C-132.2304361 135.6749595 -137.54394798 132.39242642 -144.5 125.8125 C-150.6794065 117.97123567 -148.11923446 103.89634131 -148.0625 94.3125 C-148.05747144 92.82096506 -148.05291095 91.32942846 -148.04882812 89.83789062 C-148.03793804 86.22522538 -148.02074936 82.61262368 -148 79 C-145.03 78.01 -145.03 78.01 -142 77 C-142 76.34 -142 75.68 -142 75 C-138.91190305 73.23537317 -137.76687864 73 -134 73 C-134 72.34 -134 71.68 -134 71 C-133.01 71 -132.02 71 -131 71 C-131 73.31 -131 75.62 -131 78 C-120.77 78 -110.54 78 -100 78 C-100 69.75 -100 61.5 -100 53 C-93 50 -93 50 -90 50 C-89.505 55.445 -89.505 55.445 -89 61 C-87.19402344 60.98259766 -87.19402344 60.98259766 -85.3515625 60.96484375 C-83.77604321 60.95546566 -82.20052225 60.94636548 -80.625 60.9375 C-79.8309375 60.92912109 -79.036875 60.92074219 -78.21875 60.91210938 C-72.2265625 60.88671875 -72.2265625 60.88671875 -70 62 C-70 62.66 -70 63.32 -70 64 C-75.94 64 -81.88 64 -88 64 C-88.33 68.62 -88.66 73.24 -89 78 C-79.1 77.67 -69.2 77.34 -59 77 C-58.71104956 71.16649479 -58.71104956 71.16649479 -58.43188477 65.33251953 C-58.39377686 64.60661621 -58.35566895 63.88071289 -58.31640625 63.1328125 C-58.27974854 62.38918457 -58.24309082 61.64555664 -58.20532227 60.87939453 C-58 59 -58 59 -57 57 C-57 54.36 -57 51.72 -57 49 C-67.23 48.67 -77.46 48.34 -88 48 C-84 45 -84 45 -82 45 C-81.67 44.01 -81.34 43.02 -81 42 C-79.02 41.01 -77.04 40.02 -75 39 C-81.93 38.505 -81.93 38.505 -89 38 C-89 28.1 -89 18.2 -89 8 C-84.070625 7.979375 -79.14125 7.95875 -74.0625 7.9375 C-72.50539307 7.928396 -70.94828613 7.91929199 -69.34399414 7.90991211 C-67.52049438 7.90616577 -67.52049438 7.90616577 -65.66015625 7.90234375 C-64.40855713 7.89710693 -63.15695801 7.89187012 -61.86743164 7.88647461 C-59 8 -59 8 -58 9 C-57.91299658 10.63472882 -57.89298937 12.27314055 -57.90234375 13.91015625 C-57.90717773 15.39418945 -57.90717773 15.39418945 -57.91210938 16.90820312 C-57.92467773 18.46958008 -57.92467773 18.46958008 -57.9375 20.0625 C-57.94201172 21.10728516 -57.94652344 22.15207031 -57.95117188 23.22851562 C-57.96300073 25.81903454 -57.98093681 28.40952422 -58 31 C-54.37 29.35 -50.74 27.7 -47 26 C-47 29.96 -47 33.92 -47 38 C-37.1 38 -27.2 38 -17 38 C-17.19769067 28.59046455 -17.19769067 28.59046455 -17.45043945 19.18237305 C-17.46292725 18.01230713 -17.47541504 16.84224121 -17.48828125 15.63671875 C-17.51446533 14.43748779 -17.54064941 13.23825684 -17.56762695 12.00268555 C-17 9 -17 9 -14.71948242 7.08520508 C-12 6 -12 6 -8 6 C-8 5.34 -8 4.68 -8 4 C-5.36 3.34 -2.72 2.68 0 2 C0 1.34 0 0.68 0 0 Z " fill="#3978E7" transform="translate(344,173)"/>
<path d="M0 0 C13.99509177 -0.06774676 27.99007483 -0.12279953 41.98529339 -0.15543652 C48.48366571 -0.17109973 54.98192014 -0.1923503 61.48022461 -0.22631836 C67.75014723 -0.25888793 74.01995637 -0.27684808 80.28995705 -0.28463173 C82.68338622 -0.29017952 85.07680911 -0.30101282 87.47019005 -0.31719017 C90.81970064 -0.33893204 94.16874087 -0.34196822 97.51831055 -0.34057617 C98.51021393 -0.351362 99.50211731 -0.36214783 100.52407837 -0.3732605 C109.20065397 -0.33418005 109.20065397 -0.33418005 113 3 C118.07718207 13.15436414 115 25.64707576 115 37 C77.05 37 39.1 37 0 37 C0 24.79 0 12.58 0 0 Z " fill="#E1F4FD" transform="translate(213,95)"/>
<path d="M0 0 C9.9 0 19.8 0 30 0 C30 23.76 30 47.52 30 72 C20.1 72 10.2 72 0 72 C0 48.24 0 24.48 0 0 Z " fill="#DDF2FD" transform="translate(297,222)"/>
<path d="M0 0 C23.43 0 46.86 0 71 0 C71 9.9 71 19.8 71 30 C47.57 30 24.14 30 0 30 C0 20.1 0 10.2 0 0 Z " fill="#DBF1FD" transform="translate(214,264)"/>
<path d="M0 0 C0.99837891 -0.020625 1.99675781 -0.04125 3.02539062 -0.0625 C12.28493134 -0.11185132 12.28493134 -0.11185132 16.1875 3.25 C20.38786443 8.81264479 20.94822579 13.38006093 20.1875 20.25 C19.07006976 24.82130553 16.50093714 27.01150328 13.1875 30.25 C13.46537354 30.75450684 13.74324707 31.25901367 14.02954102 31.77880859 C15.27800874 34.05642927 16.51411007 36.34053184 17.75 38.625 C18.18763672 39.4190625 18.62527344 40.213125 19.07617188 41.03125 C19.48544922 41.79179687 19.89472656 42.55234375 20.31640625 43.3359375 C20.69869385 44.0376709 21.08098145 44.7394043 21.47485352 45.46240234 C21.71002686 46.05230957 21.9452002 46.6422168 22.1875 47.25 C21.6925 48.24 21.6925 48.24 21.1875 49.25 C17.80713664 49.54029838 14.56004283 49.67488729 11.1875 49.25 C8.75 47.0625 8.75 47.0625 7.1875 44.25 C6.671875 43.46625 6.15625 42.6825 5.625 41.875 C4.1875 39.25 4.1875 39.25 2.875 35.5 C2.318125 34.4275 1.76125 33.355 1.1875 32.25 C-0.7925 31.92 -2.7725 31.59 -4.8125 31.25 C-4.8125 37.19 -4.8125 43.13 -4.8125 49.25 C-8.1125 49.25 -11.4125 49.25 -14.8125 49.25 C-16.47848628 45.91802745 -15.99721159 42.18024363 -16.015625 38.515625 C-16.02132507 37.64484314 -16.02702515 36.77406128 -16.03289795 35.87689209 C-16.04235443 34.03089617 -16.0488845 32.18488332 -16.05273438 30.33886719 C-16.0624137 27.52508698 -16.09341969 24.71204537 -16.125 21.8984375 C-16.13153277 20.104171 -16.13678216 18.30989928 -16.140625 16.515625 C-16.1529718 15.67791565 -16.1653186 14.8402063 -16.17803955 13.97711182 C-16.15921981 8.99847045 -15.59530931 5.5571723 -12.8125 1.25 C-8.96252679 -0.6749866 -4.2349112 0.02162048 0 0 Z M-4.8125 11.25 C-5.05565656 13.91949409 -5.05565656 13.91949409 -4.9375 16.875 C-4.91945312 17.87789063 -4.90140625 18.88078125 -4.8828125 19.9140625 C-4.85960937 20.68492187 -4.83640625 21.45578125 -4.8125 22.25 C2.55378957 23.04429619 2.55378957 23.04429619 8.9375 20.0625 C10.37744584 17.36291015 10.37744584 17.36291015 10.125 14.625 C9.1084365 12.0497058 8.34001791 10.95935246 6.1875 9.25 C3.97627681 8.81414738 3.97627681 8.81414738 1.625 8.9375 C0.83996094 8.94136719 0.05492187 8.94523437 -0.75390625 8.94921875 C-3.03376834 9.07296977 -3.03376834 9.07296977 -4.8125 11.25 Z " fill="#0A0B2C" transform="translate(200.8125,335.75)"/>
<path d="M0 0 C2.64 0 5.28 0 8 0 C11.02456039 4.92534568 12.99500975 9.51559007 14.5625 15.0625 C15.98299642 20.0178291 17.64990648 24.3866238 20 29 C22.32495792 35.53393347 24.35611186 42.07820245 25 49 C21.7 49 18.4 49 15 49 C12 43.375 12 43.375 12 40 C7.05 40.33 2.1 40.66 -3 41 C-3.7115625 42.7015625 -3.7115625 42.7015625 -4.4375 44.4375 C-6 48 -6 48 -7 49 C-13.52542373 49.23728814 -13.52542373 49.23728814 -16 48 C-12.8070689 31.45481155 -5.96348109 15.69142181 0 0 Z M4 16 C3.32815382 18.10251861 2.66269032 20.20707763 2 22.3125 C1.62875 23.48425781 1.2575 24.65601563 0.875 25.86328125 C-0.13434772 28.93886676 -0.13434772 28.93886676 0 32 C3.3 32 6.6 32 10 32 C9.57448104 30.08063787 9.13408062 28.16457126 8.6875 26.25 C8.44386719 25.18265625 8.20023437 24.1153125 7.94921875 23.015625 C7.0245175 20.07789099 5.99907642 18.30705738 4 16 Z " fill="#191D3B" transform="translate(318,336)"/>
<path d="M0 0 C10.56 0 21.12 0 32 0 C32 10 32 10 30 13 C29.34 13 28.68 13 28 13 C27.773125 13.680625 27.54625 14.36125 27.3125 15.0625 C25.94407398 18.12516776 24.27649513 20.49423973 22.29296875 23.17578125 C21.05309006 24.9250965 19.98240261 26.69158742 18.9375 28.5625 C17.11258417 31.80025389 15.06161759 34.90757361 13 38 C19.27 38.33 25.54 38.66 32 39 C32 41.97 32 44.94 32 48 C29.37472481 50.62527519 21.78260023 49.18561695 18.25 49.1875 C17.05632812 49.19974609 15.86265625 49.21199219 14.6328125 49.22460938 C12.90417969 49.22750977 12.90417969 49.22750977 11.140625 49.23046875 C10.08391602 49.23457764 9.02720703 49.23868652 7.93847656 49.24291992 C4.91925994 48.99332533 2.73238394 48.27256968 0 47 C-0.63126253 37.96943888 -0.63126253 37.96943888 1.75 34.3125 C2.4925 33.549375 3.235 32.78625 4 32 C4.8902447 30.41734276 5.77949917 28.83410592 6.66015625 27.24609375 C8.53303522 24.10642784 10.56703017 21.08232486 12.625 18.0625 C13.02162842 17.47017578 13.41825684 16.87785156 13.8269043 16.26757812 C14.83210656 14.80748395 15.91067613 13.39845633 17 12 C17.66 12 18.32 12 19 12 C19 11.01 19 10.02 19 9 C12.73 9 6.46 9 0 9 C0 6.03 0 3.06 0 0 Z " fill="#151836" transform="translate(265,336)"/>
<path d="M0 0 C4.929375 -0.020625 9.85875 -0.04125 14.9375 -0.0625 C17.2731604 -0.07615601 17.2731604 -0.07615601 19.65600586 -0.09008789 C21.47950562 -0.09383423 21.47950562 -0.09383423 23.33984375 -0.09765625 C24.59144287 -0.10289307 25.84304199 -0.10812988 27.13256836 -0.11352539 C30 0 30 0 31 1 C31.09993532 3.0605531 31.13080906 5.1245259 31.1328125 7.1875 C31.13474609 9.07082031 31.13474609 9.07082031 31.13671875 10.9921875 C31.13357666 11.97783691 31.13357666 11.97783691 31.13037109 12.98339844 C31.12502234 14.99161335 31.13031691 16.99960459 31.13671875 19.0078125 C31.13542969 20.26335937 31.13414062 21.51890625 31.1328125 22.8125 C31.13168457 23.97394531 31.13055664 25.13539063 31.12939453 26.33203125 C31 29 31 29 30 30 C27.78144736 30.08783542 25.56011504 30.10694609 23.33984375 30.09765625 C22.12417725 30.09515869 20.90851074 30.09266113 19.65600586 30.09008789 C18.09889893 30.08098389 16.54179199 30.07187988 14.9375 30.0625 C10.008125 30.041875 5.07875 30.02125 0 30 C0 20.1 0 10.2 0 0 Z " fill="#D6E9FA" transform="translate(213,143)"/>
<path d="M0 0 C1.375 2.125 1.375 2.125 2 4 C2.66 4 3.32 4 4 4 C4.05398987 6.27057377 4.09278742 8.54151288 4.125 10.8125 C4.14820313 12.07707031 4.17140625 13.34164063 4.1953125 14.64453125 C4 18 4 18 2 21 C2.33589585 23.4352449 3.19251968 25.50961091 4.0625 27.8125 C5.65497545 33.22691651 5.65909616 37.96171255 3 43 C0.9736774 45.48685047 -1.04075205 46.79214369 -4 48 C-10.50880826 48.6475171 -17.6419347 49.23005155 -23 45 C-25.69329622 40.87027913 -26 39.06378365 -26 34 C-22.7 34 -19.4 34 -16 34 C-16 35.32 -16 36.64 -16 38 C-10.67829506 38.29562367 -10.67829506 38.29562367 -6 36 C-5.27034634 33.43717258 -5.27034634 33.43717258 -5 31 C-5.66 31 -6.32 31 -7 31 C-7.66 30.01 -8.32 29.02 -9 28 C-11.05925139 27.27617533 -11.05925139 27.27617533 -13 27 C-13.09765625 20.84765625 -13.09765625 20.84765625 -13 19 C-12 18 -12 18 -9.4375 17.9375 C-8.2309375 17.9684375 -8.2309375 17.9684375 -7 18 C-6.79375 16.72125 -6.5875 15.4425 -6.375 14.125 C-6.25898438 13.40570313 -6.14296875 12.68640625 -6.0234375 11.9453125 C-6.01570313 11.30335938 -6.00796875 10.66140625 -6 10 C-7.95633975 7.58878141 -7.95633975 7.58878141 -11.625 7.875 C-13.295625 7.936875 -13.295625 7.936875 -15 8 C-15.66 9.98 -16.32 11.96 -17 14 C-19.97 14 -22.94 14 -26 14 C-26.17650609 9.4990948 -26.21650433 5.98970779 -24 2 C-17.94887582 -3.6477159 -7.14187717 -3.57093859 0 0 Z " fill="#212441" transform="translate(255,337)"/>
<path d="M0 0 C0.96817657 0.00050323 1.93635315 0.00100645 2.93386841 0.00152493 C4.04131912 -0.00010654 5.14876984 -0.00173801 6.28977966 -0.00341892 C7.51569321 0.00010082 8.74160675 0.00362057 10.00466919 0.00724697 C11.28758347 0.00721676 12.57049774 0.00718655 13.89228821 0.00715542 C18.16154972 0.00815053 22.43074531 0.02043901 26.69998169 0.03434658 C27.42646282 0.03655988 28.15294395 0.03877317 28.90143967 0.04105353 C35.75563498 0.06219312 42.60980386 0.0873556 49.46394348 0.12233734 C58.22624823 0.16681974 66.98809789 0.19149381 75.7505188 0.18858916 C81.91299031 0.1881962 88.07512746 0.21070471 94.23747253 0.24995607 C97.91613319 0.2727798 101.59419209 0.28569955 105.2729187 0.27404881 C109.38593871 0.26161138 113.49728194 0.29656888 117.61013794 0.33537197 C118.81985764 0.3247221 120.02957733 0.31407223 121.2759552 0.30309963 C129.95836944 0.44222687 135.0512962 2.68318803 141.37052917 8.56202698 C147.14743529 14.80697193 148.27457654 21.98772732 148.18574524 30.09660244 C148.18830851 30.96506739 148.19087179 31.83353233 148.19351274 32.7283144 C148.1984287 35.61958041 148.18199398 38.5103167 148.16555786 41.40153408 C148.16471112 43.48150527 148.16518766 45.56147735 148.16688538 47.64144802 C148.1677449 53.27517108 148.15012594 58.90870189 148.1291635 64.54238033 C148.11038963 70.43471199 148.1086457 76.32704822 148.10508728 82.21940517 C148.09576893 93.37166928 148.0711579 104.523845 148.04103881 115.67607021 C148.00748835 128.37491341 147.99100715 141.07376087 147.97595251 153.77263737 C147.94460822 179.88987066 147.89185172 206.00702554 147.82498169 232.12419033 C147.49498169 232.12419033 147.16498169 232.12419033 146.82498169 232.12419033 C146.82074975 231.49941453 146.81651781 230.87463873 146.81215763 230.23093033 C146.24833719 141.50533428 146.24833719 141.50533428 145.35416794 52.78272533 C145.3249822 50.37423229 145.29764937 47.96572453 145.27081299 45.55720425 C145.22946335 41.87373362 145.18328382 38.19035938 145.13266182 34.50700474 C145.10723189 32.59020637 145.08612778 30.67335211 145.06520081 28.75649929 C145.04844803 27.64581585 145.03169525 26.53513241 145.01443481 25.39079189 C145.00190674 24.43674465 144.98937866 23.48269741 144.97647095 22.49973965 C144.91689673 19.97458273 144.91689673 19.97458273 143.82498169 17.12419033 C141.34998169 18.11419033 141.34998169 18.11419033 138.82498169 19.12419033 C138.82498169 17.14419033 138.82498169 15.16419033 138.82498169 13.12419033 C139.81498169 13.45419033 140.80498169 13.78419033 141.82498169 14.12419033 C140.83498169 12.63919033 140.83498169 12.63919033 139.82498169 11.12419033 C139.49498169 10.46419033 139.16498169 9.80419033 138.82498169 9.12419033 C137.18135035 8.40259609 135.51447783 7.73067612 133.82498169 7.12419033 C133.82498169 6.46419033 133.82498169 5.80419033 133.82498169 5.12419033 C126.29819639 4.19913992 118.88495145 3.98641555 111.30691528 4.01066494 C109.49056076 4.0104459 109.49056076 4.0104459 107.63751221 4.01022243 C104.34893564 4.01079573 101.0604028 4.01577731 97.77183485 4.02279639 C94.32321332 4.029089 90.87459074 4.02963837 87.42596436 4.0308218 C80.90975126 4.03391781 74.39355515 4.04210767 67.8773495 4.05217129 C60.45283558 4.06338641 53.02832082 4.06885643 45.60380054 4.07386672 C30.34418446 4.0842919 15.08458527 4.10185754 -0.17501831 4.12419033 C-0.1727977 4.74678234 -0.17057709 5.36937435 -0.16828918 6.01083279 C-0.14599347 12.54950792 -0.13101146 19.08817208 -0.12008667 25.62687588 C-0.11508889 28.06014858 -0.10828845 30.49341832 -0.09957886 32.92668056 C-0.08731212 36.44434754 -0.08174429 39.96197446 -0.07736206 43.47965908 C-0.07220078 44.54999889 -0.06703949 45.62033871 -0.0617218 46.72311306 C-0.06133799 52.00844194 -0.22413005 57.2174103 -0.67402649 62.48458767 C-1.27538904 69.66405147 -1.30818035 76.80116096 -1.2885437 84.00236416 C-1.28826082 85.44268701 -1.28842152 86.88301001 -1.28898621 88.32333279 C-1.28927025 92.19022121 -1.28343762 96.0570779 -1.27641225 99.92395902 C-1.27011276 103.98115419 -1.26956974 108.03835028 -1.26838684 112.09554958 C-1.26529282 119.7591389 -1.25710571 127.42271376 -1.24703735 135.08629674 C-1.23581595 143.8191991 -1.23035065 152.55210219 -1.22534192 161.28500998 C-1.21492126 179.23141159 -1.19735959 197.17779979 -1.17501831 215.12419033 C-3.72837977 211.29414814 -3.45038368 208.19778976 -3.42225647 203.75977993 C-3.42587809 202.46454904 -3.42587809 202.46454904 -3.42957288 201.14315188 C-3.4352257 198.23880609 -3.42653486 195.33467871 -3.41793823 192.43034267 C-3.41901071 190.35273078 -3.42094887 188.27511917 -3.4236908 186.19750881 C-3.42854722 180.54694366 -3.42087395 174.89645722 -3.41073775 169.24590158 C-3.40197231 163.34332235 -3.40371439 157.44074569 -3.40409851 151.53816128 C-3.40316132 141.62672001 -3.39446913 131.71530932 -3.38082886 121.80387783 C-3.3650941 110.32777111 -3.35983102 98.85169787 -3.36056441 87.37558115 C-3.36117371 76.35460116 -3.35607777 65.33363214 -3.3477726 54.31265545 C-3.34423262 49.61329087 -3.34240833 44.91393017 -3.34187889 40.21456432 C-3.34087794 34.68740446 -3.33480177 29.16027296 -3.32471275 23.63312244 C-3.32177998 21.59849439 -3.32056394 19.56386307 -3.32114029 17.52923298 C-3.32162732 14.76433583 -3.3160117 11.9995194 -3.30873108 9.23463345 C-3.31027968 8.41860256 -3.31182828 7.60257167 -3.31342381 6.76181257 C-3.28458788 0.18754511 -3.28458788 0.18754511 0 0 Z " fill="#6082CA" transform="translate(198.17501831054688,75.87580966949463)"/>
<path d="M0 0 C10.23 0 20.46 0 31 0 C31 9.57 31 19.14 31 29 C20.77 29 10.54 29 0 29 C0 19.43 0 9.86 0 0 Z " fill="#DAEEFC" transform="translate(213,222)"/>
<path d="M0 0 C0.65972305 -0.00095673 1.31944611 -0.00191345 1.99916077 -0.00289917 C3.39714656 -0.00358086 4.79513549 -0.00172736 6.19311523 0.00244141 C8.33519607 0.00778144 10.47706642 0.00250051 12.61914062 -0.00390625 C13.97526088 -0.0032453 15.33138101 -0.00196379 16.6875 0 C17.92749756 0.00112793 19.16749512 0.00225586 20.44506836 0.00341797 C23.41015625 0.1328125 23.41015625 0.1328125 25.41015625 1.1328125 C25.859375 3.1640625 25.859375 3.1640625 26.09765625 5.6328125 C26.18402344 6.4475 26.27039063 7.2621875 26.359375 8.1015625 C26.37613281 8.771875 26.39289063 9.4421875 26.41015625 10.1328125 C26.08015625 10.4628125 25.75015625 10.7928125 25.41015625 11.1328125 C25.26629521 12.46167323 25.18339337 13.79729837 25.12890625 15.1328125 C25.09152344 15.9371875 25.05414063 16.7415625 25.015625 17.5703125 C24.98082031 18.4159375 24.94601562 19.2615625 24.91015625 20.1328125 C24.84155116 21.79966221 24.76885402 23.46635024 24.69140625 25.1328125 C24.66111328 25.8753125 24.63082031 26.6178125 24.59960938 27.3828125 C24.41015625 29.1328125 24.41015625 29.1328125 23.41015625 30.1328125 C21.19160361 30.22064792 18.97027129 30.23975859 16.75 30.23046875 C15.7533004 30.22834633 15.7533004 30.22834633 14.73646545 30.22618103 C12.60681726 30.22056768 10.47727286 30.20801304 8.34765625 30.1953125 C6.90690256 30.19029921 5.46614722 30.18573601 4.02539062 30.18164062 C0.48694523 30.17059395 -3.05143914 30.15332042 -6.58984375 30.1328125 C-6.61679226 28.17455377 -6.63621593 26.21619024 -6.65234375 24.2578125 C-6.66394531 23.16726562 -6.67554688 22.07671875 -6.6875 20.953125 C-6.58984375 18.1328125 -6.58984375 18.1328125 -5.58984375 16.1328125 C0.35015625 16.1328125 6.29015625 16.1328125 12.41015625 16.1328125 C12.41015625 15.4728125 12.41015625 14.8128125 12.41015625 14.1328125 C11.55466187 14.14066772 11.55466187 14.14066772 10.68188477 14.14868164 C8.11215302 14.16939471 5.54243878 14.1824544 2.97265625 14.1953125 C1.6259082 14.20788086 1.6259082 14.20788086 0.25195312 14.22070312 C-1.02905273 14.22553711 -1.02905273 14.22553711 -2.3359375 14.23046875 C-3.12669678 14.23570557 -3.91745605 14.24094238 -4.73217773 14.24633789 C-6.58984375 14.1328125 -6.58984375 14.1328125 -7.58984375 13.1328125 C-7.68858191 11.13481678 -7.71956174 9.13324092 -7.71484375 7.1328125 C-7.71742188 6.0396875 -7.72 4.9465625 -7.72265625 3.8203125 C-7.46941185 -1.30416246 -4.48487012 0.00408325 0 0 Z " fill="#6199E7" transform="translate(261.58984375,220.8671875)"/>
<path d="M0 0 C11.55 0 23.1 0 35 0 C35 9.24 35 18.48 35 28 C23.12 28 11.24 28 -1 28 C-1 27.01 -1 26.02 -1 25 C0.32 24.67 1.64 24.34 3 24 C2.67 22.02 2.34 20.04 2 18 C5.465 17.505 5.465 17.505 9 17 C9 15.35 9 13.7 9 12 C5.37 11.67 1.74 11.34 -2 11 C-1.67 10.34 -1.34 9.68 -1 9 C-0.01 9.33 0.98 9.66 2 10 C2 8.02 2 6.04 2 4 C1.01 4 0.02 4 -1 4 C-0.67 2.68 -0.34 1.36 0 0 Z " fill="#E1F5FD" transform="translate(249,265)"/>
<path d="M0 0 C9.9 0 19.8 0 30 0 C30 9.57 30 19.14 30 29 C20.1 29 10.2 29 0 29 C0 19.43 0 9.86 0 0 Z " fill="#D0E9FD" transform="translate(297,182)"/>
<path d="M0 0 C9.9 0 19.8 0 30 0 C30 9.57 30 19.14 30 29 C20.1 29 10.2 29 0 29 C0 19.43 0 9.86 0 0 Z " fill="#DDEDFC" transform="translate(214,182)"/>
<path d="M0 0 C9.9 0 19.8 0 30 0 C30 9.57 30 19.14 30 29 C20.1 29 10.2 29 0 29 C0 19.43 0 9.86 0 0 Z " fill="#DAE9FC" transform="translate(297,144)"/>
<path d="M0 0 C9.9 0 19.8 0 30 0 C30 9.57 30 19.14 30 29 C20.1 29 10.2 29 0 29 C0 19.43 0 9.86 0 0 Z " fill="#DDEEFC" transform="translate(255,144)"/>
<path d="M0 0 C9.57 0 19.14 0 29 0 C29 9.24 29 18.48 29 28 C19.43 28 9.86 28 0 28 C0 18.76 0 9.52 0 0 Z " fill="#E2F3FD" transform="translate(256,182)"/>
<path d="M0 0 C0.33 0 0.66 0 1 0 C1 44.55 1 89.1 1 135 C-31.8246875 135.0928125 -31.8246875 135.0928125 -65.3125 135.1875 C-72.22872314 135.21481201 -79.14494629 135.24212402 -86.27075195 135.27026367 C-94.69958496 135.28381348 -94.69958496 135.28381348 -98.64225769 135.28633118 C-101.40312159 135.29094597 -104.16357788 135.30039926 -106.92436218 135.31672668 C-111.09980008 135.34109439 -115.27493071 135.34172117 -119.45043945 135.34057617 C-121.30323627 135.35676766 -121.30323627 135.35676766 -123.19346333 135.37328625 C-124.87476983 135.36708751 -124.87476983 135.36708751 -126.59004211 135.36076355 C-127.56806447 135.36352893 -128.54608683 135.36629431 -129.55374622 135.36914349 C-132.38325252 134.9421666 -133.25937568 134.21339089 -135 132 C-133.35 132 -131.7 132 -130 132 C-130 132.33 -130 132.66 -130 133 C-65.65 133.495 -65.65 133.495 0 134 C-0.144375 116.778125 -0.28875 99.55625 -0.4375 81.8125 C-0.48060303 76.41753174 -0.52370605 71.02256348 -0.56811523 65.46411133 C-0.61146797 60.53737157 -0.61146797 60.53737157 -0.65589905 55.61064148 C-0.67485243 53.45241029 -0.69223298 51.29416488 -0.70826721 49.13591003 C-0.81670316 34.73279848 -1.19270706 20.38158523 -2 6 C-2.60714844 6.33257812 -3.21429688 6.66515625 -3.83984375 7.0078125 C-6 8 -6 8 -8.5625 7.875 C-11.10382182 7.72799919 -11.10382182 7.72799919 -12.62036133 9.66894531 C-14.26358192 12.4453513 -14.42254133 14.21148793 -14.51171875 17.421875 C-14.56489258 18.95908203 -14.56489258 18.95908203 -14.61914062 20.52734375 C-14.64169922 21.59082031 -14.66425781 22.65429688 -14.6875 23.75 C-14.72166016 24.82894531 -14.75582031 25.90789062 -14.79101562 27.01953125 C-14.87340663 29.67958377 -14.94258645 32.33931035 -15 35 C-14.34 35.33 -13.68 35.66 -13 36 C-15.25 38.5 -15.25 38.5 -18 41 C-19.32 41 -20.64 41 -22 41 C-22 42.98 -22 44.96 -22 47 C-20.35 47.33 -18.7 47.66 -17 48 C-17 48.33 -17 48.66 -17 49 C-26.9 49 -36.8 49 -47 49 C-46.67 46.03 -46.34 43.06 -46 40 C-46.66 39.67 -47.32 39.34 -48 39 C-48 38.34 -48 37.68 -48 37 C-48.66 37 -49.32 37 -50 37 C-50 33.7 -50 30.4 -50 27 C-49.01 26.67 -48.02 26.34 -47 26 C-47 29.96 -47 33.92 -47 38 C-37.1 38 -27.2 38 -17 38 C-17.19769067 28.59046455 -17.19769067 28.59046455 -17.45043945 19.18237305 C-17.46292725 18.01230713 -17.47541504 16.84224121 -17.48828125 15.63671875 C-17.51446533 14.43748779 -17.54064941 13.23825684 -17.56762695 12.00268555 C-17 9 -17 9 -14.71948242 7.08520508 C-12 6 -12 6 -8 6 C-8 5.34 -8 4.68 -8 4 C-5.36 3.34 -2.72 2.68 0 2 C0 1.34 0 0.68 0 0 Z " fill="#4C87DF" transform="translate(344,173)"/>
<path d="M0 0 C35.64 0 71.28 0 108 0 C108 0.33 108 0.66 108 1 C107.41055099 1.01030746 106.82110199 1.02061493 106.21379089 1.03123474 C100.03216272 1.14012133 93.8506565 1.25464305 87.66918945 1.37231445 C85.36778333 1.41540228 83.06635059 1.45709352 80.76489258 1.49731445 C77.44083666 1.5556565 74.11691153 1.61916046 70.79296875 1.68359375 C69.7779277 1.70030624 68.76288666 1.71701874 67.71708679 1.73423767 C61.10721389 1.86873804 54.57544636 2.31452137 48 3 C49.07661896 3.00213753 49.07661896 3.00213753 50.17498779 3.00431824 C56.94345384 3.02215747 63.71140145 3.06379793 70.47953415 3.13209057 C73.9590998 3.1663632 77.43822633 3.19147076 80.91796875 3.19555664 C84.91980053 3.20065884 88.92031685 3.24575936 92.921875 3.29296875 C94.16990906 3.2890361 95.41794312 3.28510345 96.70379639 3.28105164 C97.86469788 3.30069473 99.02559937 3.32033783 100.22167969 3.34057617 C101.75390167 3.35056892 101.75390167 3.35056892 103.31707764 3.36076355 C106.99948893 4.23813949 108.04501709 5.83306185 110 9 C110.28614917 11.76133953 110.38589883 14.08145612 110.25 16.8125 C110.23195313 17.50537109 110.21390625 18.19824219 110.1953125 18.91210938 C110.14851064 20.60867664 110.07677624 22.30452476 110 24 C109.01 24 108.02 24 107 24 C106.93941406 22.92878906 106.87882812 21.85757813 106.81640625 20.75390625 C106.73201463 19.35675609 106.64736594 17.95962143 106.5625 16.5625 C106.52318359 15.85544922 106.48386719 15.14839844 106.44335938 14.41992188 C106.52375562 10.91309581 106.52375562 10.91309581 105 8 C102.536507 7.87504973 100.09963233 7.81397797 97.63452148 7.79467773 C96.47850433 7.77982834 96.47850433 7.77982834 95.2991333 7.76467896 C92.73981853 7.73297299 90.18048517 7.7082708 87.62109375 7.68359375 C85.85131841 7.66303206 84.08154806 7.64203581 82.31178284 7.62062073 C77.6445418 7.56531891 72.97725586 7.51594554 68.30993652 7.46777344 C63.55098454 7.41761747 58.79209809 7.36190066 54.03320312 7.30664062 C44.68885802 7.19895992 35.3444561 7.09753712 26 7 C26 5.35 26 3.7 26 2 C17.75 1.67 9.5 1.34 1 1 C1 12.55 1 24.1 1 36 C38.29 36 75.58 36 114 36 C114 26.43 114 16.86 114 7 C114.33 7 114.66 7 115 7 C115 16.9 115 26.8 115 37 C77.05 37 39.1 37 0 37 C0 24.79 0 12.58 0 0 Z " fill="#A5C0ED" transform="translate(213,95)"/>
<path d="M0 0 C0.66 0 1.32 0 2 0 C2.168035 4.19896986 2.32854866 8.39814039 2.48217773 12.59765625 C2.53546157 14.02546878 2.59077975 15.45320694 2.64819336 16.88085938 C2.73048625 18.93603482 2.80539678 20.99136893 2.87890625 23.046875 C2.94960327 24.90070801 2.94960327 24.90070801 3.02172852 26.79199219 C2.99149133 31.25622368 2.48322967 33.27515549 0 37 C1.485 37.495 1.485 37.495 3 38 C3 44.6 3 51.2 3 58 C4.485 58.495 4.485 58.495 6 59 C4.625 60.5 4.625 60.5 3 62 C2.34 62 1.68 62 1 62 C0.67 54.74 0.34 47.48 0 40 C-14.85 39.505 -14.85 39.505 -30 39 C-30 48.9 -30 58.8 -30 69 C-24.39 69 -18.78 69 -13 69 C-17 72 -17 72 -19.5 72.9375 C-22.07135666 73.83008561 -22.07135666 73.83008561 -23.6875 75.8125 C-28.41438429 80.28387703 -34.61232393 82.96014576 -41 84 C-41.33 82.68 -41.66 81.36 -42 80 C-49.26 79.67 -56.52 79.34 -64 79 C-63.505 78.01 -63.505 78.01 -63 77 C-59.77090994 76.94165647 -56.54195662 76.90628885 -53.3125 76.875 C-52.40048828 76.85824219 -51.48847656 76.84148437 -50.54882812 76.82421875 C-45.84310472 76.78999531 -42.32067459 76.93285373 -38 79 C-35.75 78.5 -35.75 78.5 -34 77 C-33.30062468 75.68352881 -32.63270867 74.34977849 -32 73 C-31.01 72.34 -30.02 71.68 -29 71 C-29.99 70.67 -30.98 70.34 -32 70 C-32.02505615 69.16227051 -32.0501123 68.32454102 -32.07592773 67.46142578 C-32.17100357 64.35647744 -32.27024025 61.25169819 -32.37231445 58.14697266 C-32.43698251 56.14105193 -32.49683106 54.13497772 -32.55664062 52.12890625 C-32.59853516 50.87207031 -32.64042969 49.61523438 -32.68359375 48.3203125 C-32.72025146 47.15773926 -32.75690918 45.99516602 -32.79467773 44.79736328 C-32.81821659 42.0464499 -32.81821659 42.0464499 -34 40 C-29.43587781 36.51516923 -25.67144573 36.633226 -20.1875 36.8125 C-19.39923828 36.82603516 -18.61097656 36.83957031 -17.79882812 36.85351562 C-15.86558831 36.88866544 -13.93270318 36.94246639 -12 37 C-11.67 36.01 -11.34 35.02 -11 34 C-22.08326 32.43591018 -22.08326 32.43591018 -33 34 C-33.1251262 27.49343766 -33.1251262 27.49343766 -32.51586914 25.09082031 C-31.90882568 22.63047002 -31.78662776 20.32856786 -31.68359375 17.796875 C-31.62075195 16.32734375 -31.62075195 16.32734375 -31.55664062 14.828125 C-31.51732422 13.81234375 -31.47800781 12.7965625 -31.4375 11.75 C-31.37272461 10.203125 -31.37272461 10.203125 -31.30664062 8.625 C-31.20074318 6.0834613 -31.09866557 3.54182804 -31 1 C-30.67 1 -30.34 1 -30 1 C-30 10.9 -30 20.8 -30 31 C-20.1 30.67 -10.2 30.34 0 30 C0 20.1 0 10.2 0 0 Z " fill="#5445C8" transform="translate(285,142)"/>
<path d="M0 0 C0.99 0 1.98 0 3 0 C0.92903672 4.14192655 -1.54567314 8.07307702 -4 12 C2.27 12.33 8.54 12.66 15 13 C15 15.97 15 18.94 15 22 C12.37472481 24.62527519 4.78260023 23.18561695 1.25 23.1875 C0.05632812 23.19974609 -1.13734375 23.21199219 -2.3671875 23.22460938 C-4.09582031 23.22750977 -4.09582031 23.22750977 -5.859375 23.23046875 C-6.91608398 23.23457764 -7.97279297 23.23868652 -9.06152344 23.24291992 C-12.08074006 22.99332533 -14.26761606 22.27256968 -17 21 C-17.76681614 12.22421525 -17.76681614 12.22421525 -15.88671875 9.22265625 C-14.5 7.875 -14.5 7.875 -12 6 C-11.67 6.99 -11.34 7.98 -11 9 C-10.34 9.66 -9.68 10.32 -9 11 C-8.67 11.66 -8.34 12.32 -8 13 C-7.34 13 -6.68 13 -6 13 C-6 11.68 -6 10.36 -6 9 C-5.34 9 -4.68 9 -4 9 C-3.896875 8.2575 -3.79375 7.515 -3.6875 6.75 C-2.94569253 3.78277013 -2.11319446 2.19447117 0 0 Z " fill="#1A1D3A" transform="translate(282,362)"/>
<path d="M0 0 C0.33 0 0.66 0 1 0 C1.22693321 4.04084621 1.42824509 8.08258086 1.625 12.125 C1.68945312 13.26710937 1.75390625 14.40921875 1.8203125 15.5859375 C1.871875 16.69453125 1.9234375 17.803125 1.9765625 18.9453125 C2.02893066 19.96125488 2.08129883 20.97719727 2.13525391 22.02392578 C1.98345993 25.36394122 1.30262682 27.92651846 0 31 C-2.125 31.875 -2.125 31.875 -4 32 C-4 32.99 -4 33.98 -4 35 C-2.35 35.66 -0.7 36.32 1 37 C1.33 36.01 1.66 35.02 2 34 C3.98 34 5.96 34 8 34 C8 34.66 8 35.32 8 36 C7.195625 36.309375 6.39125 36.61875 5.5625 36.9375 C3.10919595 37.76335345 3.10919595 37.76335345 2 39 C-0.44830426 39.08843793 -2.86820599 39.11528752 -5.31640625 39.09765625 C-6.04746078 39.0962413 -6.77851532 39.09482635 -7.53172302 39.09336853 C-9.87535632 39.08775408 -12.21889539 39.07519922 -14.5625 39.0625 C-16.14778508 39.05748686 -17.73307166 39.05292363 -19.31835938 39.04882812 C-23.21230543 39.03862921 -27.10604677 39.01905687 -31 39 C-31 44.61 -31 50.22 -31 56 C-32.32 55.67 -33.64 55.34 -35 55 C-34.505 54.505 -34.505 54.505 -34 54 C-33.76298761 51.14122091 -33.57780818 48.30116703 -33.4375 45.4375 C-33.39431641 44.63119141 -33.35113281 43.82488281 -33.30664062 42.99414062 C-33.20024738 40.99631195 -33.09959112 38.9981793 -33 37 C-32.34 37 -31.68 37 -31 37 C-30.67 36.01 -30.34 35.02 -30 34 C-29.34 34 -28.68 34 -28 34 C-28 33.34 -28 32.68 -28 32 C-30.97 32.495 -30.97 32.495 -34 33 C-34 31.68 -34 30.36 -34 29 C-23.11 29 -12.22 29 -1 29 C-0.67 19.43 -0.34 9.86 0 0 Z " fill="#5F46CA" transform="translate(328,143)"/>
<path d="M0 0 C3.61708919 2.50413867 5.30981882 5.01496076 7 9 C7.56309334 14.09268242 7.71892093 19.51378047 5 24 C2.875 25.8125 2.875 25.8125 1 27 C0.67 26.34 0.34 25.68 0 25 C-0.33 25.66 -0.66 26.32 -1 27 C-1.66 27 -2.32 27 -3 27 C-4.2046878 23.38593661 -4.00507502 20.28420137 -3.9375 16.5 C-3.87076752 12.87893195 -3.87076752 12.87893195 -5 9 C-9.95 9 -14.9 9 -20 9 C-20 5 -20 5 -18.125 2.8125 C-13.03243947 -1.53115457 -6.37399372 -0.66472704 0 0 Z " fill="#1C1F3D" transform="translate(214,337)"/>
<path d="M0 0 C0.99 0.495 0.99 0.495 2 1 C1.67 4.63 1.34 8.26 1 12 C8.36056297 11.96935972 8.36056297 11.96935972 14.6875 8.9375 C15.120625 8.298125 15.55375 7.65875 16 7 C15.67 9.31 15.34 11.62 15 14 C15.66 13.67 16.32 13.34 17 13 C16.67 14.65 16.34 16.3 16 18 C16.66 18 17.32 18 18 18 C18.33 17.01 18.66 16.02 19 15 C19 16.32 19 17.64 19 19 C19.69215992 20.91375987 19.69215992 20.91375987 20.71484375 22.78515625 C21.24948242 23.82833008 21.24948242 23.82833008 21.79492188 24.89257812 C22.17197266 25.60865234 22.54902344 26.32472656 22.9375 27.0625 C23.67745769 28.49001768 24.41580443 29.91837184 25.15234375 31.34765625 C25.48226318 31.97679932 25.81218262 32.60594238 26.15209961 33.25415039 C27 35 27 35 28 38 C26.34905878 39.65094122 24.45514063 39.28867693 22.1875 39.375 C17.36426565 39.32690507 17.36426565 39.32690507 14.5625 36.8125 C14.046875 35.884375 13.53125 34.95625 13 34 C12.484375 33.21625 11.96875 32.4325 11.4375 31.625 C10 29 10 29 8.6875 25.25 C8.130625 24.1775 7.57375 23.105 7 22 C3.91630113 20.94250443 3.91630113 20.94250443 1 21 C1 20.67 1 20.34 1 20 C3.31 20 5.62 20 8 20 C8.33 18.35 8.66 16.7 9 15 C7.700625 14.855625 6.40125 14.71125 5.0625 14.5625 C1.125 14.125 1.125 14.125 0 13 C-0.07258946 10.81360547 -0.08373783 8.62499611 -0.0625 6.4375 C-0.05347656 5.23996094 -0.04445312 4.04242188 -0.03515625 2.80859375 C-0.02355469 1.88175781 -0.01195312 0.95492188 0 0 Z " fill="#212541" transform="translate(195,346)"/>
<path d="M0 0 C2.68674602 0.36307379 4.55872304 0.66904228 6.75 2.3125 C9.79287886 6.42038647 9.13785005 11.60244038 9.12025452 16.49139404 C9.12110894 17.35644129 9.12196337 18.22148854 9.12284368 19.11274934 C9.12449302 22.01626791 9.11898601 24.91972892 9.11352539 27.82324219 C9.11324338 29.90262348 9.11340153 31.98200487 9.1139679 34.06138611 C9.11425531 39.71180418 9.10836758 45.3622011 9.10139394 51.01261425 C9.09515113 56.91565532 9.09455586 62.81869686 9.09336853 68.72174072 C9.09025796 79.90243307 9.08204825 91.08311567 9.07201904 102.26380372 C9.06084941 114.99158531 9.05534531 127.71936735 9.05032361 140.44715261 C9.03986542 166.63144049 9.02227126 192.8157197 9 219 C8.67 219 8.34 219 8 219 C7.99576806 218.3752242 7.99153612 217.7504484 7.98717594 217.10674 C7.4233555 128.38114395 7.4233555 128.38114395 6.52918625 39.658535 C6.50000051 37.25004196 6.47266768 34.8415342 6.4458313 32.43301392 C6.40448166 28.74954329 6.35830213 25.06616905 6.30768013 21.38281441 C6.2822502 19.46601604 6.26114609 17.54916178 6.24021912 15.63230896 C6.22346634 14.52162552 6.20671356 13.41094208 6.18945312 12.26660156 C6.17066101 10.8355307 6.17066101 10.8355307 6.15148926 9.37554932 C6.09191505 6.8503924 6.09191505 6.8503924 5 4 C3.35 4.66 1.7 5.32 0 6 C0 4.02 0 2.04 0 0 Z " fill="#A7B9EC" transform="translate(337,89)"/>
<path d="M0 0 C9.57 0 19.14 0 29 0 C29 3.3 29 6.6 29 10 C19.43 10 9.86 10 0 10 C0 6.7 0 3.4 0 0 Z " fill="#DEF5FD" transform="translate(256,240)"/>
<path d="M0 0 C9.57 0 19.14 0 29 0 C29 3.3 29 6.6 29 10 C19.43 10 9.86 10 0 10 C0 6.7 0 3.4 0 0 Z " fill="#DEF4FD" transform="translate(256,222)"/>
<path d="M0 0 C2.64 0 5.28 0 8 0 C11.69757049 5.73760939 13.42035192 11.38223191 15 18 C13.02 17.67 11.04 17.34 9 17 C8.67 19.64 8.34 22.28 8 25 C7.67 25 7.34 25 7 25 C6.01 21.37 5.02 17.74 4 14 C3.01 14.66 2.02 15.32 1 16 C0.01 15.01 -0.98 14.02 -2 13 C-1.34 13 -0.68 13 0 13 C0 12.01 0 11.02 0 10 C-0.99 10.99 -1.98 11.98 -3 13 C-4.23593891 9.29218328 -3.5678132 8.32489747 -2.0625 4.8125 C-1.68222656 3.91144531 -1.30195313 3.01039063 -0.91015625 2.08203125 C-0.60980469 1.39496094 -0.30945313 0.70789063 0 0 Z " fill="#1F213F" transform="translate(318,336)"/>
<path d="M0 0 C1.08440872 0.05132584 2.16881744 0.10265167 3.28608704 0.15553284 C4.47856552 0.21965866 5.67104401 0.28378448 6.8996582 0.34985352 C9.53940461 0.46619108 12.17883858 0.57832428 14.8190918 0.68139648 C15.5238971 0.70901219 16.22870241 0.7366279 16.95486546 0.76508045 C25.83304818 1.08906724 34.7119415 1.08362764 43.5949707 1.07641602 C44.87242472 1.07584764 44.87242472 1.07584764 46.17568588 1.07526779 C51.40032552 1.07185744 56.62492607 1.06085149 61.84954834 1.04742432 C66.36299146 1.03697773 70.87644072 1.03258225 75.38989258 1.02758789 C84.16009098 1.01703638 92.93026066 1.00009558 101.70043945 0.97875977 C101.70043945 1.63875977 101.70043945 2.29875977 101.70043945 2.97875977 C102.69043945 2.97875977 103.68043945 2.97875977 104.70043945 2.97875977 C104.70043945 3.63875977 104.70043945 4.29875977 104.70043945 4.97875977 C104.13492496 4.81702302 103.56941048 4.65528627 102.98675919 4.48864841 C100.62410491 3.96173585 98.53771274 3.84022594 96.11932373 3.82054138 C95.20509644 3.81075256 94.29086914 3.80096375 93.34893799 3.7908783 C92.35343933 3.78512283 91.35794067 3.77936737 90.33227539 3.7734375 C89.27830566 3.7635379 88.22433594 3.75363831 87.13842773 3.74343872 C83.65391284 3.71184568 80.16938432 3.68707485 76.68481445 3.66235352 C74.26914108 3.6417821 71.8534713 3.62078558 69.43780518 3.59938049 C63.07892764 3.54417921 56.72001772 3.4947613 50.36108398 3.4465332 C43.87261065 3.39630404 37.38418435 3.34062535 30.89575195 3.28540039 C18.16401981 3.17784255 5.43224771 3.07689579 -7.29956055 2.97875977 C-7.29956055 14.85875977 -7.29956055 26.73875977 -7.29956055 38.97875977 C-7.62956055 38.97875977 -7.95956055 38.97875977 -8.29956055 38.97875977 C-8.44350814 34.83452395 -8.58586556 30.69023734 -8.72680664 26.54589844 C-8.7748816 25.1386572 -8.82337653 23.73143024 -8.87231445 22.32421875 C-8.94294271 20.29113395 -9.01201567 18.25800108 -9.08081055 16.22485352 C-9.12270508 15.00467529 -9.16459961 13.78449707 -9.20776367 12.52734375 C-9.298769 9.00935864 -9.3153496 5.49774576 -9.29956055 1.97875977 C-6.02679944 0.0149834 -3.78348346 -0.21047109 0 0 Z " fill="#547FCD" transform="translate(220.299560546875,92.021240234375)"/>
<path d="M0 0 C9.24 0 18.48 0 28 0 C27.67 1.65 27.34 3.3 27 5 C25.7934375 4.9690625 25.7934375 4.9690625 24.5625 4.9375 C22.06645115 4.70366379 22.06645115 4.70366379 21 6 C18.30345146 6.07319621 15.63308542 6.09242537 12.9375 6.0625 C12.17888672 6.05798828 11.42027344 6.05347656 10.63867188 6.04882812 C8.75908129 6.0370068 6.87953101 6.01907078 5 6 C5 7.98 5 9.96 5 12 C5.66 12.33 6.32 12.66 7 13 C4.92391901 16.94455388 4.17799643 17.91100178 0 20 C0 13.4 0 6.8 0 0 Z " fill="#E3F4FC" transform="translate(298,183)"/>
<path d="M0 0 C0 0.33 0 0.66 0 1 C-1.98 1 -3.96 1 -6 1 C-5.6596875 1.8971875 -5.6596875 1.8971875 -5.3125 2.8125 C-5 5 -5 5 -6.0625 6.6875 C-8.62952708 8.42645383 -10.95169518 8.66129946 -14 9 C-14.66 10.98 -15.32 12.96 -16 15 C-18.97 15 -21.94 15 -25 15 C-25.17650609 10.4990948 -25.21650433 6.98970779 -23 3 C-17.04175869 -2.56102522 -7.46893376 -1.99171567 0 0 Z " fill="#202542" transform="translate(254,336)"/>
<path d="M0 0 C16.794369 -0.14037649 33.58855402 -0.2460715 50.38337612 -0.31087303 C58.18213491 -0.34176597 65.98052844 -0.38385817 73.77905273 -0.45263672 C80.57901086 -0.51257971 87.37870437 -0.55118232 94.17891937 -0.56453097 C97.77726615 -0.57232989 101.37485614 -0.59056094 104.97295952 -0.63438034 C108.997202 -0.68298856 113.02014236 -0.68393041 117.04467773 -0.68115234 C118.22791626 -0.702724 119.41115479 -0.72429565 120.63024902 -0.746521 C128.33587235 -0.68906739 133.20729608 0.82806127 139 6 C140.85084093 7.9277721 142.40805528 9.84317167 144 12 C143.67 12.66 143.34 13.32 143 14 C139.125 10.25 139.125 10.25 138 8 C136.35636866 7.27840576 134.68949614 6.60648579 133 6 C133 5.34 133 4.68 133 4 C118.33857526 1.76001184 103.77204337 1.65457658 88.96484375 1.5859375 C86.38838607 1.5671908 83.81193431 1.54761489 81.23548889 1.5272522 C75.19411669 1.48147672 69.15274707 1.44393842 63.11129528 1.41057932 C56.22101304 1.37205944 49.33082057 1.32273004 42.44061458 1.27259517 C28.29381112 1.16989632 14.14694671 1.08043882 0 1 C0 0.67 0 0.34 0 0 Z " fill="#719BD2" transform="translate(199,77)"/>
<path d="M0 0 C0.78375 0.16628906 1.5675 0.33257812 2.375 0.50390625 C7.80437869 1.24693545 13.18737167 1.0057476 18.65625 0.87304688 C23.49642754 0.81108677 27.501341 0.94924694 32 3 C33.24664614 5.41018253 33.06694109 6.68923939 32.49902344 9.32568359 C32.00112183 11.99398801 31.95799565 14.27156282 32.078125 16.9765625 C32.10390625 17.894375 32.1296875 18.8121875 32.15625 19.7578125 C32.21902387 21.67764673 32.29728813 23.59703378 32.390625 25.515625 C32.4488333 28.09861821 32.46188849 30.45729225 32 33 C29.609375 35.2109375 29.609375 35.2109375 27 36 C26.34 35.67 25.68 35.34 25 35 C23.22142354 34.92710005 21.44010031 34.91633993 19.66015625 34.9375 C18.0659082 34.94910156 18.0659082 34.94910156 16.43945312 34.9609375 C14.19205677 34.98693399 11.94466093 35.0129755 9.69726562 35.0390625 C8.63314453 35.04679687 7.56902344 35.05453125 6.47265625 35.0625 C5.49562744 35.07410156 4.51859863 35.08570313 3.51196289 35.09765625 C1 35 1 35 -2 34 C-2.82038591 27.598406 -3.12754513 21.38697499 -3.0625 14.9375 C-3.05798828 14.07189453 -3.05347656 13.20628906 -3.04882812 12.31445312 C-3.03719913 10.20960461 -3.01927073 8.10479242 -3 6 C-3.66 6 -4.32 6 -5 6 C-5 5.34 -5 4.68 -5 4 C-3.68 3.67 -2.36 3.34 -1 3 C-0.67 12.57 -0.34 22.14 0 32 C9.9 32.33 19.8 32.66 30 33 C29.67 23.43 29.34 13.86 29 4 C19.43 3.67 9.86 3.34 0 3 C0 2.01 0 1.02 0 0 Z " fill="#5448C3" transform="translate(214,178)"/>
<path d="M0 0 C0.33 0 0.66 0 1 0 C1 9.24 1 18.48 1 28 C1.99 28.33 2.98 28.66 4 29 C3.67330322 29.54132568 3.34660645 30.08265137 3.01000977 30.64038086 C1.77792344 33.51882281 1.7875982 35.62842229 1.83984375 38.75390625 C1.85080078 39.85541016 1.86175781 40.95691406 1.87304688 42.09179688 C1.89431641 43.23712891 1.91558594 44.38246094 1.9375 45.5625 C1.97190603 47.83457228 2.0020528 50.10671423 2.02734375 52.37890625 C2.04531006 53.3851001 2.06327637 54.39129395 2.08178711 55.42797852 C2 58 2 58 1 61 C1.66 61 2.32 61 3 61 C2.9278125 61.62648437 2.855625 62.25296875 2.78125 62.8984375 C2.64203125 64.12433594 2.64203125 64.12433594 2.5 65.375 C2.4071875 66.18710938 2.314375 66.99921875 2.21875 67.8359375 C1.96647649 69.96912825 1.96647649 69.96912825 2 72 C4.82330006 70.92050292 7.49104768 69.74966197 10.1875 68.375 C13 67 13 67 15 67 C14.97905273 66.37955811 14.95810547 65.75911621 14.93652344 65.11987305 C14.85338594 62.30924682 14.80134939 59.49887904 14.75 56.6875 C14.71648437 55.71103516 14.68296875 54.73457031 14.6484375 53.72851562 C14.63554687 52.79072266 14.62265625 51.85292969 14.609375 50.88671875 C14.58842773 50.02264404 14.56748047 49.15856934 14.54589844 48.26831055 C15 46 15 46 16.85253906 44.17504883 C19 43 19 43 21.75 43.3125 C22.4925 43.539375 23.235 43.76625 24 44 C24 44.33 24 44.66 24 45 C21.03 45.495 21.03 45.495 18 46 C17.67 53.26 17.34 60.52 17 68 C16.01 68 15.02 68 14 68 C14 68.66 14 69.32 14 70 C10.04 70.99 10.04 70.99 6 72 C6 72.66 6 73.32 6 74 C3.03 74.99 3.03 74.99 0 76 C0 50.92 0 25.84 0 0 Z " fill="#5A3EC6" transform="translate(196,176)"/>
<path d="M0 0 C7.51032142 -0.09265712 15.02058364 -0.16374292 22.53134632 -0.20724869 C26.01890556 -0.228129 29.50607394 -0.25645318 32.9934082 -0.30175781 C37.00215417 -0.35351062 41.01048922 -0.37294136 45.01953125 -0.390625 C46.89932426 -0.42159271 46.89932426 -0.42159271 48.8170929 -0.45318604 C49.97806992 -0.45348816 51.13904694 -0.45379028 52.33520508 -0.45410156 C53.87075798 -0.46742523 53.87075798 -0.46742523 55.43733215 -0.48101807 C58 0 58 0 59.83573914 1.79888916 C61.55033817 5.04045009 61.31898156 8.18314136 61.1875 11.75 C61.16719727 12.79607422 61.16719727 12.79607422 61.14648438 13.86328125 C61.1112945 15.57585541 61.05749155 17.28802941 61 19 C60.01 19 59.02 19 58 19 C57.93941406 17.92878906 57.87882812 16.85757813 57.81640625 15.75390625 C57.73201463 14.35675609 57.64736594 12.95962143 57.5625 11.5625 C57.52318359 10.85544922 57.48386719 10.14839844 57.44335938 9.41992188 C57.52375562 5.91309581 57.52375562 5.91309581 56 3 C54.25161165 2.8768483 52.49835496 2.82212189 50.74584961 2.79467773 C49.62476303 2.77473251 48.50367645 2.75478729 47.34861755 2.73423767 C46.1288472 2.71752518 44.90907684 2.70081268 43.65234375 2.68359375 C42.41078018 2.66281265 41.16921661 2.64203156 39.89002991 2.62062073 C36.58400877 2.56616391 33.27797755 2.51595795 29.97186279 2.46777344 C26.60032509 2.41760144 23.22887947 2.36189299 19.85742188 2.30664062 C13.23835449 2.19929962 6.6192184 2.09755802 0 2 C0 1.34 0 0.68 0 0 Z " fill="#6985CB" transform="translate(262,100)"/>
<path d="M0 0 C2.76223278 2.76223278 2.57856291 5.20706617 3 9 C2.360625 9.268125 1.72125 9.53625 1.0625 9.8125 C-1.33131686 10.88667752 -1.33131686 10.88667752 -2 14 C-2.65129797 15.34090759 -3.31513275 16.67592331 -4 18 C-4.66 18 -5.32 18 -6 18 C-6 19.32 -6 20.64 -6 22 C-6.99 22.33 -7.98 22.66 -9 23 C-10.808164 20.43843434 -11.92774182 18.317936 -12.625 15.25 C-11.4497322 9.13860743 -7.063141 4.44858836 -2.0625 0.9375 C-1.381875 0.628125 -0.70125 0.31875 0 0 Z " fill="#1C203F" transform="translate(282,353)"/>
<path d="M0 0 C3.3 0 6.6 0 10 0 C10 1.32 10 2.64 10 4 C12.97 4 15.94 4 19 4 C18.67 4.99 18.34 5.98 18 7 C16.02 7.33 14.04 7.66 12 8 C12 9.32 12 10.64 12 12 C19.05651252 12.14975239 19.05651252 12.14975239 26 11 C21.71204241 14.95328773 17.71554684 14.4312479 12.140625 14.28125 C8.3728307 13.94383558 5.98995706 13.36049242 3 11 C0.30670378 6.87027913 0 5.06378365 0 0 Z " fill="#232845" transform="translate(229,371)"/>
<path d="M0 0 C0.66 0.33 1.32 0.66 2 1 C2 1.66 2 2.32 2 3 C4.31 3.33 6.62 3.66 9 4 C8.79375 4.94875 8.5875 5.8975 8.375 6.875 C8.25125 7.90625 8.1275 8.9375 8 10 C8.66 10.66 9.32 11.32 10 12 C10.125 14.625 10.125 14.625 10 17 C9.773125 16.360625 9.54625 15.72125 9.3125 15.0625 C8.14749104 12.72806339 8.14749104 12.72806339 5.375 12.25 C4.59125 12.1675 3.8075 12.085 3 12 C2.34 13.65 1.68 15.3 1 17 C0.34 17 -0.32 17 -1 17 C-1.66 16.01 -2.32 15.02 -3 14 C-5.05925139 13.27617533 -5.05925139 13.27617533 -7 13 C-7.09765625 6.84765625 -7.09765625 6.84765625 -7 5 C-6 4 -6 4 -3.4375 3.9375 C-2.2309375 3.9684375 -2.2309375 3.9684375 -1 4 C-0.67 2.68 -0.34 1.36 0 0 Z " fill="#252A46" transform="translate(249,351)"/>
<path d="M0 0 C0.98484375 0.02707031 1.9696875 0.05414063 2.984375 0.08203125 C3.73203125 0.11683594 4.4796875 0.15164062 5.25 0.1875 C5.25 0.8475 5.25 1.5075 5.25 2.1875 C4.5075 2.435 3.765 2.6825 3 2.9375 C0.21732072 3.9898143 0.21732072 3.9898143 -1.4375 6 C-6.16438429 10.47137703 -12.36232393 13.14764576 -18.75 14.1875 C-19.08 12.8675 -19.41 11.5475 -19.75 10.1875 C-27.01 9.8575 -34.27 9.5275 -41.75 9.1875 C-41.42 8.5275 -41.09 7.8675 -40.75 7.1875 C-37.52090994 7.12915647 -34.29195662 7.09378885 -31.0625 7.0625 C-30.15048828 7.04574219 -29.23847656 7.02898437 -28.29882812 7.01171875 C-23.59310472 6.97749531 -20.07067459 7.12035373 -15.75 9.1875 C-13.5 8.6875 -13.5 8.6875 -11.75 7.1875 C-11.0662955 5.86282254 -10.40035814 4.52886367 -9.75 3.1875 C-6.55004889 0.14901431 -4.34450509 -0.1551609 0 0 Z " fill="#5D39C8" transform="translate(262.75,211.8125)"/>
<path d="M0 0 C2.81256281 -0.02684312 5.62487241 -0.04676188 8.4375 -0.0625 C9.23994141 -0.07087891 10.04238281 -0.07925781 10.86914062 -0.08789062 C12.91295221 -0.0965143 14.95683902 -0.0522815 17 0 C18 1 18 1 18.125 3.5 C18 6 18 6 17 7 C14.66702567 7.04092937 12.33294775 7.04241723 10 7 C10 8.65 10 10.3 10 12 C8.68 12 7.36 12 6 12 C6 10.35 6 8.7 6 7 C5.195625 7.020625 4.39125 7.04125 3.5625 7.0625 C1 7 1 7 0 6 C-0.04080783 4.00041636 -0.04254356 1.99954746 0 0 Z " fill="#A4CBF5" transform="translate(241,276)"/>
<path d="M0 0 C1.65 0 3.3 0 5 0 C5 1.98 5 3.96 5 6 C6.98 6 8.96 6 11 6 C11 7.65 11 9.3 11 11 C9.02 11 7.04 11 5 11 C5 12.65 5 14.3 5 16 C3.35 16 1.7 16 0 16 C0 14.35 0 12.7 0 11 C-1.98 11 -3.96 11 -6 11 C-6 9.35 -6 7.7 -6 6 C-4.02 6 -2.04 6 0 6 C0 4.02 0 2.04 0 0 Z " fill="#3F7BE0" transform="translate(311,251)"/>
<path d="M0 0 C0.598125 0.33 1.19625 0.66 1.8125 1 C4.05386471 2.20787988 4.05386471 2.20787988 7 2 C7.33 1.34 7.66 0.68 8 0 C8.99 0 9.98 0 11 0 C11.33 1.65 11.66 3.3 12 5 C11.01 5.495 11.01 5.495 10 6 C9.67 6.99 9.34 7.98 9 9 C9.99 9.33 10.98 9.66 12 10 C11.67 11.32 11.34 12.64 11 14 C10.01 14 9.02 14 8 14 C7.67 13.34 7.34 12.68 7 12 C6.4225 12.165 5.845 12.33 5.25 12.5 C3 13 3 13 -1 13 C-0.814375 11.9275 -0.62875 10.855 -0.4375 9.75 C-0.05838162 6.50041391 -0.11249939 4.99531456 -1 2 C-0.67 1.34 -0.34 0.68 0 0 Z " fill="#6058C6" transform="translate(307,150)"/>
<path d="M0 0 C0 8.25 0 16.5 0 25 C-0.33 25 -0.66 25 -1 25 C-1.33 18.07 -1.66 11.14 -2 4 C-3.98 4.99 -3.98 4.99 -6 6 C-6.845625 5.95875 -7.69125 5.9175 -8.5625 5.875 C-11.10382182 5.72799919 -11.10382182 5.72799919 -12.62036133 7.66894531 C-14.26358192 10.4453513 -14.42254133 12.21148793 -14.51171875 15.421875 C-14.54716797 16.44667969 -14.58261719 17.47148437 -14.61914062 18.52734375 C-14.64169922 19.59082031 -14.66425781 20.65429688 -14.6875 21.75 C-14.72166016 22.82894531 -14.75582031 23.90789062 -14.79101562 25.01953125 C-14.87340663 27.67958377 -14.94258645 30.33931035 -15 33 C-14.34 33.33 -13.68 33.66 -13 34 C-14.98 34.495 -14.98 34.495 -17 35 C-17.12368591 31.06754915 -17.21437336 27.13585202 -17.2746582 23.2019043 C-17.31214374 21.20646445 -17.37567535 19.21156948 -17.43945312 17.21679688 C-17.45556641 15.96318359 -17.47167969 14.70957031 -17.48828125 13.41796875 C-17.51446533 12.26063232 -17.54064941 11.1032959 -17.56762695 9.91088867 C-17 7 -17 7 -14.71948242 5.09887695 C-12 4 -12 4 -8 4 C-8 3.34 -8 2.68 -8 2 C-2.25 0 -2.25 0 0 0 Z " fill="#4D89DC" transform="translate(344,175)"/>
<path d="M0 0 C1.60294922 0.04060547 1.60294922 0.04060547 3.23828125 0.08203125 C4.04652344 0.11683594 4.85476562 0.15164063 5.6875 0.1875 C6.0175 1.8375 6.3475 3.4875 6.6875 5.1875 C6.048125 5.31125 5.40875 5.435 4.75 5.5625 C4.069375 5.76875 3.38875 5.975 2.6875 6.1875 C2.3575 6.8475 2.0275 7.5075 1.6875 8.1875 C-1.9425 7.8575 -5.5725 7.5275 -9.3125 7.1875 C-9.3125 7.8475 -9.3125 8.5075 -9.3125 9.1875 C-10.6325 8.8575 -11.9525 8.5275 -13.3125 8.1875 C-12.39464949 5.10018466 -11.72587632 3.50048493 -9.125 1.53125 C-5.82747394 -0.04423467 -3.632133 -0.11974065 0 0 Z " fill="#050527" transform="translate(206.3125,336.8125)"/>
<path d="M0 0 C0.99 0.33 1.98 0.66 3 1 C5.72883073 1.15370348 8.43697142 1.25728265 11.16796875 1.31640625 C11.96278152 1.33718735 12.7575943 1.35796844 13.57649231 1.37937927 C16.11340763 1.44472087 18.65042573 1.50368808 21.1875 1.5625 C22.90821372 1.60569986 24.62891708 1.64931463 26.34960938 1.69335938 C30.56630113 1.80038648 34.7830962 1.90169724 39 2 C39 2.33 39 2.66 39 3 C1.71 3 -35.58 3 -74 3 C-74 2.67 -74 2.34 -74 2 C-66.67598408 1.82911096 -59.35177665 1.66977948 -52.02734375 1.51782227 C-49.54486633 1.46503432 -47.06244009 1.40977025 -44.58007812 1.35180664 C-29.6642935 1.00541827 -14.88889904 0.96921353 0 2 C0 1.34 0 0.68 0 0 Z " fill="#306EE1" transform="translate(297,304)"/>
<path d="M0 0 C0.33 0.99 0.66 1.98 1 3 C1.66 3 2.32 3 3 3 C3.33 2.01 3.66 1.02 4 0 C4 5.94 4 11.88 4 18 C-6.89 18 -17.78 18 -29 18 C-29 17.67 -29 17.34 -29 17 C-19.43 17 -9.86 17 0 17 C0 16.01 0 15.02 0 14 C-0.99 13.67 -1.98 13.34 -3 13 C-3 11.68 -3 10.36 -3 9 C-2.01 9 -1.02 9 0 9 C0 6.03 0 3.06 0 0 Z " fill="#DDEDFE" transform="translate(323,113)"/>
<path d="M0 0 C0.98613281 0.00322266 1.97226563 0.00644531 2.98828125 0.00976562 C4.02082031 0.01814453 5.05335938 0.02652344 6.1171875 0.03515625 C7.67759766 0.04192383 7.67759766 0.04192383 9.26953125 0.04882812 C11.84380712 0.06063673 14.41796896 0.0771055 16.9921875 0.09765625 C16.9921875 0.42765625 16.9921875 0.75765625 16.9921875 1.09765625 C15.77982422 1.17113281 15.77982422 1.17113281 14.54296875 1.24609375 C13.47433594 1.32085937 12.40570313 1.395625 11.3046875 1.47265625 C10.24894531 1.54226563 9.19320312 1.611875 8.10546875 1.68359375 C4.99765357 1.96409507 4.99765357 1.96409507 2.3046875 3.19140625 C-0.97337623 4.47605285 -2.85709383 3.41656174 -6.0078125 2.09765625 C-9.13853735 11.48983081 -8.29165353 22.44110158 -8.5703125 32.28515625 C-8.61362816 33.72852478 -8.65724596 35.17188428 -8.70117188 36.61523438 C-8.80686108 40.10927798 -8.90848832 43.60342523 -9.0078125 47.09765625 C-9.3378125 47.09765625 -9.6678125 47.09765625 -10.0078125 47.09765625 C-10.08217501 41.51093431 -10.13651504 35.92450286 -10.17260742 30.33740234 C-10.18765941 28.43826272 -10.20810566 26.53915766 -10.23413086 24.64013672 C-10.27067242 21.90453544 -10.28757488 19.16939525 -10.30078125 16.43359375 C-10.31626511 15.58961029 -10.33174896 14.74562683 -10.34770203 13.87606812 C-10.34911845 8.87292767 -9.81215918 5.42455736 -7.0078125 1.09765625 C-4.50284246 -0.15482877 -2.79927976 -0.01608781 0 0 Z " fill="#778799" transform="translate(195.0078125,335.90234375)"/>
<path d="M0 0 C1.32 0 2.64 0 4 0 C4 13.86 4 27.72 4 42 C3.34 41.01 2.68 40.02 2 39 C1.505 39.495 1.505 39.495 1 40 C-0.99958364 40.04080783 -3.00045254 40.04254356 -5 40 C-5.33 41.32 -5.66 42.64 -6 44 C-6 42.35 -6 40.7 -6 39 C-4.02 39 -2.04 39 0 39 C0 37.35 0 35.7 0 34 C-1.98 34 -3.96 34 -6 34 C-6 32.02 -6 30.04 -6 28 C-7.65 28 -9.3 28 -11 28 C-11 27.67 -11 27.34 -11 27 C-8.69 27 -6.38 27 -4 27 C-4 28.98 -4 30.96 -4 33 C-2.35 33 -0.7 33 1 33 C1.33 33.66 1.66 34.32 2 35 C2.33 23.78 2.66 12.56 3 1 C2.01 0.67 1.02 0.34 0 0 Z " fill="#D4F1FE" transform="translate(322,223)"/>
<path d="M0 0 C0.33 0 0.66 0 1 0 C1.33 6.27 1.66 12.54 2 19 C22.46 19.33 42.92 19.66 64 20 C64 20.33 64 20.66 64 21 C55.83766524 21.06948076 47.67545383 21.12280118 39.51289654 21.15543652 C35.7227656 21.1710991 31.93283684 21.19234778 28.14282227 21.22631836 C24.48589399 21.2588913 20.8291603 21.27684855 17.17209816 21.28463173 C15.77621204 21.29017901 14.38033669 21.3010115 12.98453331 21.31719017 C11.0310541 21.33893429 9.07737949 21.34022515 7.1237793 21.34057617 C6.0112529 21.34723801 4.8987265 21.35389984 3.75248718 21.36076355 C1 21 1 21 -0.88273621 19.47871399 C-1.25143326 18.99073837 -1.62013031 18.50276276 -2 18 C-1.67 17.34 -1.34 16.68 -1 16 C-0.7677354 13.28737884 -0.58063765 10.59226874 -0.4375 7.875 C-0.39431641 7.12089844 -0.35113281 6.36679688 -0.30664062 5.58984375 C-0.2005168 3.72678112 -0.09974999 1.86341476 0 0 Z " fill="#5369C9" transform="translate(211,112)"/>
<path d="M0 0 C0.33 0 0.66 0 1 0 C1 9.9 1 19.8 1 30 C16.345 29.505 16.345 29.505 32 29 C32 29.66 32 30.32 32 31 C31.21874756 31.02505615 30.43749512 31.0501123 29.63256836 31.07592773 C26.06740383 31.19250203 22.50246387 31.31494865 18.9375 31.4375 C17.70837891 31.47681641 16.47925781 31.51613281 15.21289062 31.55664062 C9.40765506 31.76005858 3.7246793 31.98776102 -2 33 C-2.1251262 26.49343766 -2.1251262 26.49343766 -1.51586914 24.09082031 C-0.90882568 21.63047002 -0.78662776 19.32856786 -0.68359375 16.796875 C-0.64169922 15.8171875 -0.59980469 14.8375 -0.55664062 13.828125 C-0.51732422 12.81234375 -0.47800781 11.7965625 -0.4375 10.75 C-0.39431641 9.71875 -0.35113281 8.6875 -0.30664062 7.625 C-0.20074318 5.0834613 -0.09866557 2.54182804 0 0 Z " fill="#5B59C7" transform="translate(254,143)"/>
<path d="M0 0 C1.65 0.33 3.3 0.66 5 1 C4.01 2.485 4.01 2.485 3 4 C3.33 4.33 3.66 4.66 4 5 C4.04092937 7.33297433 4.04241723 9.66705225 4 12 C1.03 12 -1.94 12 -5 12 C-4.74438677 9.6568787 -4.40729228 7.32156597 -4 5 C-3.34 4.67 -2.68 4.34 -2 4 C-0.86649466 1.98330173 -0.86649466 1.98330173 0 0 Z " fill="#101232" transform="translate(235,338)"/>
<path d="M0 0 C2.4375 0.125 2.4375 0.125 5 1 C6.48382404 3.49552226 7 5.22801353 7 8.125 C5.44117959 11.04778827 2.95645856 11.74193253 0 13 C-1.4617773 8.6146681 -2.44935236 5.47981638 -1 1 C-0.67 0.67 -0.34 0.34 0 0 Z " fill="#040627" transform="translate(252,362)"/>
<path d="M0 0 C0.99 0 1.98 0 3 0 C3 2.31 3 4.62 3 7 C13.23 7 23.46 7 34 7 C34 7.66 34 8.32 34 9 C32.74340576 9.03758423 32.74340576 9.03758423 31.46142578 9.07592773 C28.35647744 9.17100357 25.25169819 9.27024025 22.14697266 9.37231445 C20.14105193 9.43698251 18.13497772 9.49683106 16.12890625 9.55664062 C14.24365234 9.61948242 14.24365234 9.61948242 12.3203125 9.68359375 C11.15773926 9.72025146 9.99516602 9.75690918 8.79736328 9.79467773 C6.0464499 9.81821659 6.0464499 9.81821659 4 11 C3.67 10.34 3.34 9.68 3 9 C0.97536745 8.34786708 0.97536745 8.34786708 -1 8 C-0.34 7.34 0.32 6.68 1 6 C1.64767793 3.42938689 1.64767793 3.42938689 2 1 C1.34 0.67 0.68 0.34 0 0 Z " fill="#427BD9" transform="translate(210,244)"/>
<path d="M0 0 C5.28 0 10.56 0 16 0 C16 1.65 16 3.3 16 5 C10.72 5 5.44 5 0 5 C0 3.35 0 1.7 0 0 Z " fill="#6386D9" transform="translate(304,190)"/>
<path d="M0 0 C0.33 0 0.66 0 1 0 C1 9.57 1 19.14 1 29 C6.61 29 12.22 29 18 29 C13.61998169 31.19000915 10.91209181 31.06464914 6.25 30.625 C2.66125 30.315625 2.66125 30.315625 -1 30 C-1.33 21.42 -1.66 12.84 -2 4 C-1.34 4 -0.68 4 0 4 C0 2.68 0 1.36 0 0 Z " fill="#5D48C3" transform="translate(254,182)"/>
<path d="M0 0 C0.66 0 1.32 0 2 0 C2.66 0.99 3.32 1.98 4 3 C5.65 2.67 7.3 2.34 9 2 C9 6.13643553 8.84767359 6.69802433 6.5 9.75 C6.0359375 10.36359375 5.571875 10.9771875 5.09375 11.609375 C4.55234375 12.29773438 4.55234375 12.29773438 4 13 C2 12 2 12 0.875 8.9375 C0.58625 7.968125 0.2975 6.99875 0 6 C-1.65 6.66 -3.3 7.32 -5 8 C-4.21718695 6.66144944 -3.42348123 5.32926356 -2.625 4 C-2.18414062 3.2575 -1.74328125 2.515 -1.2890625 1.75 C-0.86367188 1.1725 -0.43828125 0.595 0 0 Z " fill="#232843" transform="translate(282,348)"/>
<path d="M0 0 C0.66 0.33 1.32 0.66 2 1 C2.99 1.33 3.98 1.66 5 2 C5.66 2.33 6.32 2.66 7 3 C6 5 5 7 4 9 C3.34 9 2.68 9 2 9 C2 10.32 2 11.64 2 13 C1.01 13.33 0.02 13.66 -1 14 C-3.29379749 10.55930376 -4 9.27709699 -4 5 C-3.01 5 -2.02 5 -1 5 C-0.67 3.35 -0.34 1.7 0 0 Z " fill="#040526" transform="translate(274,362)"/>
<path d="M0 0 C0.33 0 0.66 0 1 0 C1 7.26 1 14.52 1 22 C2.32 22.33 3.64 22.66 5 23 C4.34 23.66 3.68 24.32 3 25 C2.29289322 26.64991582 1.62056011 28.31562256 1 30 C-0.08539063 30.10957031 -1.17078125 30.21914062 -2.2890625 30.33203125 C-3.73444152 30.49158608 -5.17975051 30.65177611 -6.625 30.8125 C-7.69427734 30.91788086 -7.69427734 30.91788086 -8.78515625 31.02539062 C-13.46033262 31.5615347 -16.78678797 32.79217568 -21 35 C-21.66 34.67 -22.32 34.34 -23 34 C-14.78999892 28.81083453 -10.52638409 29 0 29 C0 19.43 0 9.86 0 0 Z " fill="#5B75D4" transform="translate(285,182)"/>
<path d="M0 0 C0 0.66 0 1.32 0 2 C0.66 2 1.32 2 2 2 C2 2.66 2 3.32 2 4 C-1.20380017 6.13586678 -2.01939967 6.23132175 -5.6875 6.125 C-6.49574219 6.10695313 -7.30398437 6.08890625 -8.13671875 6.0703125 C-9.05904297 6.03550781 -9.05904297 6.03550781 -10 6 C-10.33 4.35 -10.66 2.7 -11 1 C-3.57142857 -1.42857143 -3.57142857 -1.42857143 0 0 Z " fill="#050526" transform="translate(251,378)"/>
<path d="M0 0 C5.28 0 10.56 0 16 0 C16 1.32 16 2.64 16 4 C10.72 4 5.44 4 0 4 C0 2.68 0 1.36 0 0 Z " fill="#477CD8" transform="translate(241,277)"/>
<path d="M0 0 C0.99 0 1.98 0 3 0 C3 9.9 3 19.8 3 30 C2.01 30 1.02 30 0 30 C0 20.1 0 10.2 0 0 Z " fill="#5286DC" transform="translate(285,264)"/>
<path d="M0 0 C5.28 0 10.56 0 16 0 C16 1.32 16 2.64 16 4 C10.72 4 5.44 4 0 4 C0 2.68 0 1.36 0 0 Z " fill="#4888DA" transform="translate(304,198)"/>
<path d="M0 0 C0 3.96 0 7.92 0 12 C8.91 12 17.82 12 27 12 C26.67 12.66 26.34 13.32 26 14 C21.87501462 14.02892385 17.75005515 14.04677267 13.625 14.0625 C11.8615625 14.07506836 11.8615625 14.07506836 10.0625 14.08789062 C8.38027344 14.09272461 8.38027344 14.09272461 6.6640625 14.09765625 C5.10872803 14.10551147 5.10872803 14.10551147 3.52197266 14.11352539 C1 14 1 14 -1 13 C-1 12.34 -1 11.68 -1 11 C-1.66 11 -2.32 11 -3 11 C-3 7.7 -3 4.4 -3 1 C-1 0 -1 0 0 0 Z " fill="#4182D8" transform="translate(297,199)"/>
<path d="M0 0 C0.33 0 0.66 0 1 0 C1 9.24 1 18.48 1 28 C1.99 28.33 2.98 28.66 4 29 C3.68289062 29.48984375 3.36578125 29.9796875 3.0390625 30.484375 C1.58626385 34.001677 1.53415248 37.49665393 1.375 41.25 C1.33632812 41.99507812 1.29765625 42.74015625 1.2578125 43.5078125 C1.16394892 45.3381524 1.08090282 47.16904143 1 49 C0.67 49 0.34 49 0 49 C0 32.83 0 16.66 0 0 Z " fill="#5650CA" transform="translate(196,176)"/>
<path d="M0 0 C0 9.57 0 19.14 0 29 C-2 27 -2 27 -2.22705078 24.56982422 C-2.21657715 23.5748291 -2.20610352 22.57983398 -2.1953125 21.5546875 C-2.18886719 20.47832031 -2.18242187 19.40195313 -2.17578125 18.29296875 C-2.15902344 17.16503906 -2.14226562 16.03710938 -2.125 14.875 C-2.11597656 13.73933594 -2.10695312 12.60367188 -2.09765625 11.43359375 C-2.07403098 8.62218701 -2.04109013 5.81119702 -2 3 C-2.66 3 -3.32 3 -4 3 C-4 2.34 -4 1.68 -4 1 C-2 0 -2 0 0 0 Z " fill="#504CC6" transform="translate(213,181)"/>
<path d="M0 0 C0.99 0 1.98 0 3 0 C0.92903672 4.14192655 -1.54567314 8.07307702 -4 12 C2.27 12.33 8.54 12.66 15 13 C15 13.33 15 13.66 15 14 C8.07 14 1.14 14 -6 14 C-6 12.35 -6 10.7 -6 9 C-5.34 9 -4.68 9 -4 9 C-3.896875 8.2575 -3.79375 7.515 -3.6875 6.75 C-2.94569253 3.78277013 -2.11319446 2.19447117 0 0 Z " fill="#636B81" transform="translate(282,362)"/>
<path d="M0 0 C1.65 0 3.3 0 5 0 C3.02 2.97 3.02 2.97 1 6 C2.32 6.33 3.64 6.66 5 7 C5 7.99 5 8.98 5 10 C4.01 10.33 3.02 10.66 2 11 C1.67 11.66 1.34 12.32 1 13 C0.34 13 -0.32 13 -1 13 C-2.64697278 8.05908166 -1.72436582 4.74200601 0 0 Z " fill="#040626" transform="translate(212,351)"/>
<path d="M0 0 C2.78359935 3.52433307 4.32701037 6.85735902 6 11 C5 12 5 12 2.71484375 12.09765625 C1.34005859 12.08025391 1.34005859 12.08025391 -0.0625 12.0625 C-0.98160156 12.05347656 -1.90070313 12.04445313 -2.84765625 12.03515625 C-3.55792969 12.02355469 -4.26820313 12.01195312 -5 12 C-4.35546875 11.77570313 -3.7109375 11.55140625 -3.046875 11.3203125 C-0.75611148 10.17110544 -0.75611148 10.17110544 -0.390625 7.6171875 C-0.34421875 6.71226562 -0.2978125 5.80734375 -0.25 4.875 C-0.19328125 3.96492188 -0.1365625 3.05484375 -0.078125 2.1171875 C-0.05234375 1.41851562 -0.0265625 0.71984375 0 0 Z " fill="#454B62" transform="translate(217,373)"/>
<path d="M0 0 C0.33 0 0.66 0 1 0 C1 12.54 1 25.08 1 38 C-1.97 38.495 -1.97 38.495 -5 39 C-4.35256836 38.5059668 -3.70513672 38.01193359 -3.03808594 37.50292969 C-0.28206595 34.11832057 -0.39752377 31.13592839 -0.390625 26.953125 C-0.37408875 26.18192322 -0.35755249 25.41072144 -0.34051514 24.6161499 C-0.29205407 22.16068546 -0.27066963 19.70584016 -0.25 17.25 C-0.22183854 15.58200013 -0.19191086 13.91402908 -0.16015625 12.24609375 C-0.08629628 8.1641135 -0.03671064 4.08247655 0 0 Z " fill="#5443C6" transform="translate(343,136)"/>
<path d="M0 0 C0.66 0.33 1.32 0.66 2 1 C2 4.96 2 8.92 2 13 C1.01 13 0.02 13 -1 13 C-1 12.01 -1 11.02 -1 10 C-1.99 9.67 -2.98 9.34 -4 9 C-4 7.68 -4 6.36 -4 5 C-3.01 5 -2.02 5 -1 5 C-0.67 3.35 -0.34 1.7 0 0 Z " fill="#CADBF1" transform="translate(324,117)"/>
<path d="M0 0 C3.96 0.33 7.92 0.66 12 1 C6.5704918 5.67540984 6.5704918 5.67540984 3 6 C0.99053778 5.72949547 -1.01354224 5.40632091 -3 5 C-3 4.34 -3 3.68 -3 3 C-2.01 3 -1.02 3 0 3 C0 2.01 0 1.02 0 0 Z " fill="#4C4ED4" transform="translate(212,173)"/>
<path d="M0 0 C1.65 0 3.3 0 5 0 C5 1.98 5 3.96 5 6 C6.98 6 8.96 6 11 6 C11 7.65 11 9.3 11 11 C9.02 11 7.04 11 5 11 C5 10.67 5 10.34 5 10 C6.65 10 8.3 10 10 10 C10 9.01 10 8.02 10 7 C8.906875 7.020625 7.81375 7.04125 6.6875 7.0625 C3 7 3 7 0 6 C0 4.02 0 2.04 0 0 Z " fill="#5C8CDE" transform="translate(311,251)"/>
<path d="M0 0 C2 1 4 2 6 3 C6 3.66 6 4.32 6 5 C5.01 5 4.02 5 3 5 C2.67 6.98 2.34 8.96 2 11 C2.66 11.33 3.32 11.66 4 12 C2.02 12.99 2.02 12.99 0 14 C-1.00746004 10.86567988 -0.78454137 9.13816549 0 6 C-0.31478446 4.66216607 -0.64587656 3.32796291 -1 2 C-0.67 1.34 -0.34 0.68 0 0 Z " fill="#6463C7" transform="translate(307,150)"/>
<path d="M0 0 C0 0.99 0 1.98 0 3 C0.33 3.66 0.66 4.32 1 5 C2 7 2 7 2 10 C-0.97 9.505 -0.97 9.505 -4 9 C-4 6.69 -4 4.38 -4 2 C-2.68 1.34 -1.36 0.68 0 0 Z " fill="#040525" transform="translate(270,373)"/>
<path d="M0 0 C1.134375 0.020625 2.26875 0.04125 3.4375 0.0625 C3.4375 2.0425 3.4375 4.0225 3.4375 6.0625 C0.5625 5.8125 0.5625 5.8125 -2.5625 5.0625 C-3.9375 3 -3.9375 3 -4.5625 1.0625 C-3.5625 0.0625 -3.5625 0.0625 0 0 Z " fill="#A9CAEC" transform="translate(247.5625,268.9375)"/>
<path d="M0 0 C3.3 0 6.6 0 10 0 C9.67 0.66 9.34 1.32 9 2 C7.02 2 5.04 2 3 2 C3.66 2.66 4.32 3.32 5 4 C4.34 4 3.68 4 3 4 C3.33 4.99 3.66 5.98 4 7 C3.67 7.66 3.34 8.32 3 9 C3.66 9 4.32 9 5 9 C5.33 9.99 5.66 10.98 6 12 C3.21882328 10.9802352 2.18166898 10.33608762 0.75 7.6875 C0 5 0 5 0 0 Z " fill="#5C657B" transform="translate(229,371)"/>
<path d="M0 0 C0.66 0 1.32 0 2 0 C2 5.61 2 11.22 2 17 C0.68 16.67 -0.64 16.34 -2 16 C-1.67 15.67 -1.34 15.34 -1 15 C-0.76346477 12.47403741 -0.57826308 9.96892793 -0.4375 7.4375 C-0.39431641 6.72658203 -0.35113281 6.01566406 -0.30664062 5.28320312 C-0.20028223 3.52238088 -0.09961154 1.7612168 0 0 Z " fill="#6450C0" transform="translate(295,182)"/>
<path d="M0 0 C0.66 0.33 1.32 0.66 2 1 C0.7260411 3.03833424 -0.61061923 5.03852126 -2 7 C-2.66 7 -3.32 7 -4 7 C-4.33 9.31 -4.66 11.62 -5 14 C-2.36 14 0.28 14 3 14 C3 14.33 3 14.66 3 15 C0.03 15 -2.94 15 -6 15 C-6.17650609 10.4990948 -6.21650433 6.98970779 -4 3 C-1.875 1.1875 -1.875 1.1875 0 0 Z " fill="#6B758B" transform="translate(235,336)"/>
<path d="M0 0 C1.98 0 3.96 0 6 0 C5.34 1.98 4.68 3.96 4 6 C2.35 6 0.7 6 -1 6 C-1 2 -1 2 0 0 Z " fill="#030525" transform="translate(199,360)"/>
<path d="M0 0 C0.99 0.66 1.98 1.32 3 2 C3.40843923 4.71203652 3.13336867 7.2437142 3 10 C1 7 1 7 0 3 C-3.96 3 -7.92 3 -12 3 C-12 2.34 -12 1.68 -12 1 C-11.21753906 1.01160156 -10.43507812 1.02320313 -9.62890625 1.03515625 C-8.61699219 1.04417969 -7.60507813 1.05320312 -6.5625 1.0625 C-5.04849609 1.07990234 -5.04849609 1.07990234 -3.50390625 1.09765625 C-1.05978933 1.28612676 -1.05978933 1.28612676 0 0 Z " fill="#444F65" transform="translate(209,343)"/>
<path d="M0 0 C4.37653129 0.47620289 6.06538005 1.66899889 8.8125 5.0625 C9.41707031 5.79597656 10.02164062 6.52945313 10.64453125 7.28515625 C11.09183594 7.85105469 11.53914063 8.41695312 12 9 C11.67 9.66 11.34 10.32 11 11 C7.125 7.25 7.125 7.25 6 5 C5.175 4.690625 4.35 4.38125 3.5 4.0625 C2.675 3.711875 1.85 3.36125 1 3 C0.67 2.01 0.34 1.02 0 0 Z " fill="#7994D6" transform="translate(331,80)"/>
<path d="M0 0 C0.83265381 0.04713135 1.66530762 0.0942627 2.52319336 0.14282227 C3.871875 0.21533203 3.871875 0.21533203 5.24780273 0.28930664 C6.19333008 0.34538086 7.13885742 0.40145508 8.11303711 0.45922852 C9.53712891 0.53753906 9.53712891 0.53753906 10.98999023 0.61743164 C13.34380663 0.74754209 15.6972441 0.88251963 18.05053711 1.02172852 C18.05053711 1.35172852 18.05053711 1.68172852 18.05053711 2.02172852 C8.64553711 2.51672852 8.64553711 2.51672852 -0.94946289 3.02172852 C-1.27946289 5.33172852 -1.60946289 7.64172852 -1.94946289 10.02172852 C-2.27946289 10.02172852 -2.60946289 10.02172852 -2.94946289 10.02172852 C-2.97635505 8.5426596 -2.99580911 7.06345369 -3.01196289 5.58422852 C-3.02356445 4.76051758 -3.03516602 3.93680664 -3.04711914 3.08813477 C-2.91841426 0.36473939 -2.73852817 0.03052336 0 0 Z " fill="#5190D0" transform="translate(198.949462890625,76.978271484375)"/>
<path d="M0 0 C0.66 0 1.32 0 2 0 C2.433125 1.134375 2.86625 2.26875 3.3125 3.4375 C4.1478125 5.2009375 4.1478125 5.2009375 5 7 C5.99 7.33 6.98 7.66 8 8 C9.1875 10.5625 9.1875 10.5625 10 13 C6.91245575 11.64416535 4.95292371 10.17282591 2.75 7.625 C2.22921875 7.03976562 1.7084375 6.45453125 1.171875 5.8515625 C0 4 0 4 0 0 Z " fill="#769CE9" transform="translate(197,291)"/>
<path d="M0 0 C1.65 0 3.3 0 5 0 C5.66 1.65 6.32 3.3 7 5 C4.36 5 1.72 5 -1 5 C-0.67 3.35 -0.34 1.7 0 0 Z " fill="#070A2A" transform="translate(336,379)"/>
<path d="M0 0 C1.98 0 3.96 0 6 0 C6.33 1.65 6.66 3.3 7 5 C5.68 5 4.36 5 3 5 C3 4.34 3 3.68 3 3 C2.01 3 1.02 3 0 3 C0 2.01 0 1.02 0 0 Z " fill="#050727" transform="translate(248,337)"/>
<path d="M0 0 C-0.6875 1.9375 -0.6875 1.9375 -2 4 C-3.66500443 4.34153937 -5.33178677 4.67449498 -7 5 C-8.68538601 6.99665314 -8.68538601 6.99665314 -10 9 C-10.66 9 -11.32 9 -12 9 C-12 8.01 -12 7.02 -12 6 C-9.0936485 3.19744677 -8.21174952 3 -4 3 C-4 2.34 -4 1.68 -4 1 C-2 0 -2 0 0 0 Z " fill="#4A75DE" transform="translate(340,176)"/>
<path d="M0 0 C2.97 0.495 2.97 0.495 6 1 C6 2.32 6 3.64 6 5 C4.02 5.66 2.04 6.32 0 7 C0 4.69 0 2.38 0 0 Z " fill="#5547CE" transform="translate(309,154)"/>
<path d="M0 0 C2.74148672 0.37047118 4.58593199 0.68587944 6.8125 2.375 C8 4 8 4 8 7 C7.01 6.67 6.02 6.34 5 6 C5 5.34 5 4.68 5 4 C3.35 4.66 1.7 5.32 0 6 C0 4.02 0 2.04 0 0 Z " fill="#5D77D5" transform="translate(337,89)"/>
<path d="M0 0 C0.33 0 0.66 0 1 0 C1.33 6.93 1.66 13.86 2 21 C1.01 20.67 0.02 20.34 -1 20 C-1.33 19.01 -1.66 18.02 -2 17 C-1.67 16.67 -1.34 16.34 -1 16 C-0.76321284 13.30764224 -0.57801975 10.63501844 -0.4375 7.9375 C-0.39431641 7.17888672 -0.35113281 6.42027344 -0.30664062 5.63867188 C-0.20026367 3.75934562 -0.09960066 1.87969756 0 0 Z " fill="#466ECE" transform="translate(211,112)"/>
<path d="M0 0 C0.66 0 1.32 0 2 0 C3.80411967 2.75924185 4.0127245 3.88972103 3.625 7.25 C3.41875 8.1575 3.2125 9.065 3 10 C1.68 10 0.36 10 -1 10 C-0.67 6.7 -0.34 3.4 0 0 Z " fill="#050528" transform="translate(214,374)"/>
<path d="M0 0 C2.97 0.495 2.97 0.495 6 1 C5.3125 2.9375 5.3125 2.9375 4 5 C1.375 5.75 1.375 5.75 -1 6 C-0.67 4.02 -0.34 2.04 0 0 Z " fill="#040629" transform="translate(327,353)"/>
<path d="M0 0 C0 3.63 0 7.26 0 11 C-0.99 11 -1.98 11 -3 11 C-3 7.7 -3 4.4 -3 1 C-1 0 -1 0 0 0 Z " fill="#5387D7" transform="translate(297,199)"/>
<path d="M0 0 C2.62527189 -0.05382106 5.24944713 -0.09358313 7.875 -0.125 C8.62136719 -0.14175781 9.36773437 -0.15851563 10.13671875 -0.17578125 C12.09194461 -0.1933959 14.04742021 -0.10320189 16 0 C16.66 0.66 17.32 1.32 18 2 C14.13409701 3.28863433 10.93154289 2.59547091 7 2 C5.66673154 1.81203922 4.33340331 1.62450168 3 1.4375 C2.01 1.293125 1.02 1.14875 0 1 C0 0.67 0 0.34 0 0 Z " fill="#6385CF" transform="translate(315,78)"/>
<path d="M0 0 C0.66 0.66 1.32 1.32 2 2 C1.625 4.625 1.625 4.625 1 7 C0.67 6.34 0.34 5.68 0 5 C-2.02463255 4.34786708 -2.02463255 4.34786708 -4 4 C-2.68 2.68 -1.36 1.36 0 0 Z " fill="#030524" transform="translate(282,353)"/>
<path d="M0 0 C-1.41328129 0.81837442 -2.83078346 1.62946219 -4.25 2.4375 C-5.43335938 3.11619141 -5.43335938 3.11619141 -6.640625 3.80859375 C-8.78833468 4.89311602 -10.65205061 5.53148716 -13 6 C-9.70862872 2.32140857 -5.25202969 -2.62601484 0 0 Z " fill="#4A4BCF" transform="translate(260,219)"/>
<path d="M0 0 C1.98 0.99 1.98 0.99 4 2 C4 6.62 4 11.24 4 16 C3.67 16 3.34 16 3 16 C2.92652344 14.89591797 2.92652344 14.89591797 2.8515625 13.76953125 C2.77679688 12.79371094 2.70203125 11.81789063 2.625 10.8125 C2.55539062 9.84957031 2.48578125 8.88664062 2.4140625 7.89453125 C1.99784147 4.98491062 1.20125904 2.67109226 0 0 Z " fill="#596DC7" transform="translate(325,97)"/>
<path d="M0 0 C2.4375 0.375 2.4375 0.375 5 1 C5.33 1.66 5.66 2.32 6 3 C5.01 3.33 4.02 3.66 3 4 C2.26676204 6.01508358 2.26676204 6.01508358 2 8 C0.4375 5.6875 0.4375 5.6875 -1 3 C-0.67 2.01 -0.34 1.02 0 0 Z " fill="#CEE1FA" transform="translate(320,96)"/>
<path d="M0 0 C1.65 0.33 3.3 0.66 5 1 C3.515 3.475 3.515 3.475 2 6 C1.67 5.34 1.34 4.68 1 4 C0.34 4 -0.32 4 -1 4 C-0.67 2.68 -0.34 1.36 0 0 Z " fill="#030425" transform="translate(235,338)"/>
<path d="M0 0 C1.98 0 3.96 0 6 0 C4.68 0.33 3.36 0.66 2 1 C2 1.66 2 2.32 2 3 C3.32 3.33 4.64 3.66 6 4 C6 4.33 6 4.66 6 5 C4.02 5 2.04 5 0 5 C0 3.35 0 1.7 0 0 Z " fill="#6092DF" transform="translate(305,257)"/>
<path d="M0 0 C0.66 0 1.32 0 2 0 C2.33 2.97 2.66 5.94 3 9 C2.01 9.33 1.02 9.66 0 10 C0 6.7 0 3.4 0 0 Z " fill="#5F93E0" transform="translate(285,222)"/>
<path d="M0 0 C1.98 0 3.96 0 6 0 C6 0.66 6 1.32 6 2 C3.02588876 3.23921302 0.14737182 4.30058404 -3 5 C-2.34 4.67 -1.68 4.34 -1 4 C-0.34786708 1.97536745 -0.34786708 1.97536745 0 0 Z " fill="#5046CC" transform="translate(330,177)"/>
<path d="M0 0 C2.64 0 5.28 0 8 0 C7.67 0.99 7.34 1.98 7 3 C2.25 2.25 2.25 2.25 0 0 Z M2 3 C4 4 4 4 4 4 Z " fill="#050A26" transform="translate(230,372)"/>
<path d="M0 0 C0.99 0 1.98 0 3 0 C2.67 1.98 2.34 3.96 2 6 C1.34 6 0.68 6 0 6 C-0.66 4.68 -1.32 3.36 -2 2 C-1.34 2 -0.68 2 0 2 C0 1.34 0 0.68 0 0 Z " fill="#2C304A" transform="translate(248,362)"/>
<path d="M0 0 C0.99 0 1.98 0 3 0 C3.33 1.65 3.66 3.3 4 5 C3.01 5 2.02 5 1 5 C1 4.34 1 3.68 1 3 C0.34 2.67 -0.32 2.34 -1 2 C-0.67 1.34 -0.34 0.68 0 0 Z " fill="#6C6EC8" transform="translate(315,150)"/>
</svg>
